<svg width="20" height="20" viewBox="0 0 20 20" fill="none" xmlns="http://www.w3.org/2000/svg">
<path d="M20 10C19.9939 15.5203 15.5203 19.9939 10 20H9.80002C4.30455 19.8901 -0.0720219 15.3654 0.000898122 9.8693C0.0738281 4.3732 4.56891 -0.0337009 10.0653 0.00219917C15.5618 0.0380993 19.9989 4.5034 20 10ZM2.00002 10C2.00002 14.4183 5.58174 18 10 18C14.4183 18 18 14.4183 18 10C18 5.5817 14.4183 2 10 2C5.5838 2.005 2.00498 5.5838 2.00002 10ZM15 10L13.59 11.41L11 8.83V15H9.00002V8.83L6.41002 11.41L5.00002 10L10 5L15 10Z" fill="white"/>
</svg>
