<svg width="404" height="306" viewBox="0 0 404 306" fill="none" xmlns="http://www.w3.org/2000/svg">
<g opacity="0.15">
<path d="M117.559 20.8781L158.705 256.976M117.559 20.8781L173.4 54.1865M117.559 20.8781L55.8406 57.1513M158.705 256.976L229.24 217.79M158.705 256.976L157.516 257.69M173.4 54.1865L5.87793 217.79M173.4 54.1865L197.891 67.8851M173.4 54.1865L62.6982 249.139M173.4 54.1865L5.87793 86.5153M173.4 54.1865L230.469 135.498M5.87793 217.79V86.5153M5.87793 217.79L6.85759 217.219M5.87793 217.79L231.2 86.5153M5.87793 217.79L55.8406 57.1513M5.87793 86.5153L229.24 217.79M5.87793 86.5153L55.8406 57.1513M5.87793 86.5153L157.516 257.69M231.2 86.5153L197.891 67.8851M231.2 86.5153L230.469 135.498M231.2 86.5153L55.8406 57.1513M229.24 217.79L62.6982 249.139M229.24 217.79L230.469 135.498M229.24 217.79L55.8406 57.1513M229.24 217.79L197.891 67.8851M229.24 217.79L91.1084 264.813M119.519 280.488L197.891 67.8851M119.519 280.488L157.516 257.69M119.519 280.488L230.469 135.498M119.519 280.488L91.1084 264.813M62.6982 249.139L6.85759 217.219M62.6982 249.139L91.1084 264.813M6.85759 217.219L230.469 135.498" stroke="url(#paint0_linear)" stroke-width="1.6"/>
<circle cx="117.559" cy="20.878" r="5.87796" fill="url(#paint1_linear)"/>
<circle cx="5.87796" cy="85.5356" r="5.87796" fill="url(#paint2_linear)"/>
<circle cx="172.42" cy="54.1864" r="5.87796" fill="url(#paint3_linear)"/>
<circle cx="229.24" cy="85.5356" r="5.87796" fill="url(#paint4_linear)"/>
<circle cx="229.24" cy="216.81" r="5.87796" fill="url(#paint5_linear)"/>
<circle cx="137.152" cy="232.485" r="5.87796" fill="url(#paint6_linear)"/>
<circle cx="62.6983" cy="248.159" r="5.87796" fill="url(#paint7_linear)"/>
<circle cx="96.0068" cy="185.461" r="5.87796" fill="url(#paint8_linear)"/>
<circle cx="5.87796" cy="216.81" r="5.87796" fill="url(#paint9_linear)"/>
<circle cx="117.559" cy="150.193" r="5.87796" fill="url(#paint10_linear)"/>
<circle cx="148.908" cy="199.176" r="5.87796" fill="url(#paint11_linear)"/>
<circle cx="166.542" cy="158.03" r="5.87796" fill="url(#paint12_linear)"/>
<circle cx="186.136" cy="189.38" r="5.87796" fill="url(#paint13_linear)"/>
<circle cx="140.091" cy="35.5729" r="2.93898" fill="url(#paint14_linear)"/>
<circle cx="198.871" cy="68.8814" r="2.93898" fill="url(#paint15_linear)"/>
<circle cx="230.22" cy="102.19" r="2.93898" fill="url(#paint16_linear)"/>
<circle cx="216.505" cy="153.132" r="2.93898" fill="url(#paint17_linear)"/>
<circle cx="200.83" cy="190.359" r="2.93898" fill="url(#paint18_linear)"/>
<circle cx="183.197" cy="153.132" r="2.93898" fill="url(#paint19_linear)"/>
<circle cx="230.22" cy="162.929" r="2.93898" fill="url(#paint20_linear)"/>
<circle cx="230.22" cy="135.498" r="2.93898" fill="url(#paint21_linear)"/>
<circle cx="144.01" cy="137.458" r="2.93898" fill="url(#paint22_linear)"/>
<circle cx="89.1491" cy="135.498" r="2.93898" fill="url(#paint23_linear)"/>
<circle cx="19.5933" cy="175.664" r="3.91864" fill="url(#paint24_linear)"/>
<circle cx="6.85773" cy="123.742" r="2.93898" fill="url(#paint25_linear)"/>
<circle cx="49.9626" cy="76.7186" r="2.93898" fill="url(#paint26_linear)"/>
<circle cx="73.4743" cy="72.7999" r="2.93898" fill="url(#paint27_linear)"/>
<circle cx="108.743" cy="66.922" r="2.93898" fill="url(#paint28_linear)"/>
<circle cx="36.2475" cy="233.464" r="2.93898" fill="url(#paint29_linear)"/>
<circle cx="53.8813" cy="198.196" r="2.93898" fill="url(#paint30_linear)"/>
<circle cx="112.661" cy="239.342" r="2.93898" fill="url(#paint31_linear)"/>
<circle cx="112.661" cy="239.342" r="2.93898" fill="url(#paint32_linear)"/>
<circle cx="159.684" cy="256.976" r="2.93898" fill="url(#paint33_linear)"/>
<circle cx="118.539" cy="280.488" r="2.93898" fill="url(#paint34_linear)"/>
<circle cx="93.0678" cy="264.813" r="2.93898" fill="url(#paint35_linear)"/>
<circle cx="174.379" cy="130.6" r="1.95932" fill="url(#paint36_linear)"/>
<circle cx="99.9253" cy="97.2915" r="1.95932" fill="url(#paint37_linear)"/>
<circle cx="183.197" cy="68.8814" r="2.93898" fill="url(#paint38_linear)"/>
<circle cx="35.2676" cy="120.803" r="3.91864" fill="url(#paint39_linear)"/>
<circle cx="188.095" cy="240.322" r="1.95932" fill="url(#paint40_linear)"/>
<circle cx="109.722" cy="203.095" r="1.95932" fill="url(#paint41_linear)"/>
<circle cx="66.6168" cy="181.542" r="1.95932" fill="url(#paint42_linear)"/>
<circle cx="168.501" cy="212.891" r="1.95932" fill="url(#paint43_linear)"/>
<circle cx="77.3931" cy="45.3694" r="2.93898" fill="url(#paint44_linear)"/>
<circle cx="55.8405" cy="57.1254" r="2.93898" fill="url(#paint45_linear)"/>
</g>
<g filter="url(#filter0_d)">
<path d="M268.511 6.52551L314.19 268.635M268.511 6.52551L330.504 43.5036M268.511 6.52551L199.993 46.795M314.19 268.635L392.496 225.131M314.19 268.635L312.87 269.427M330.504 43.5036L144.526 225.131M330.504 43.5036L357.693 58.7114M330.504 43.5036L207.606 259.934M330.504 43.5036L144.526 79.3941M330.504 43.5036L393.86 133.774M144.526 225.131V79.3941M144.526 225.131L145.613 224.498M144.526 225.131L394.671 79.3941M144.526 225.131L199.993 46.795M144.526 79.3941L392.496 225.131M144.526 79.3941L199.993 46.795M144.526 79.3941L312.87 269.427M394.671 79.3941L357.693 58.7114M394.671 79.3941L393.86 133.774M394.671 79.3941L199.993 46.795M392.496 225.131L207.606 259.934M392.496 225.131L393.86 133.774M392.496 225.131L199.993 46.795M392.496 225.131L357.693 58.7114M392.496 225.131L239.146 277.336M270.686 294.737L357.693 58.7114M270.686 294.737L312.87 269.427M270.686 294.737L393.86 133.774M270.686 294.737L239.146 277.336M207.606 259.934L145.613 224.498M207.606 259.934L239.146 277.336M145.613 224.498L393.86 133.774" stroke="url(#paint46_linear)" stroke-width="1.6"/>
<circle cx="268.511" cy="6.52555" r="6.52555" fill="url(#paint47_linear)"/>
<circle cx="144.526" cy="78.3065" r="6.52555" fill="url(#paint48_linear)"/>
<circle cx="329.416" cy="43.5037" r="6.52555" fill="url(#paint49_linear)"/>
<circle cx="392.496" cy="78.3065" r="6.52555" fill="url(#paint50_linear)"/>
<circle cx="392.496" cy="224.044" r="6.52555" fill="url(#paint51_linear)"/>
<circle cx="290.263" cy="241.445" r="6.52555" fill="url(#paint52_linear)"/>
<circle cx="207.606" cy="258.847" r="6.52555" fill="url(#paint53_linear)"/>
<circle cx="244.584" cy="189.241" r="6.52555" fill="url(#paint54_linear)"/>
<circle cx="144.526" cy="224.044" r="6.52555" fill="url(#paint55_linear)"/>
<circle cx="268.511" cy="150.088" r="6.52555" fill="url(#paint56_linear)"/>
<circle cx="303.314" cy="204.467" r="6.52555" fill="url(#paint57_linear)"/>
<circle cx="322.89" cy="158.788" r="6.52555" fill="url(#paint58_linear)"/>
<circle cx="344.643" cy="193.591" r="6.52555" fill="url(#paint59_linear)"/>
<circle cx="293.525" cy="22.8394" r="3.26277" fill="url(#paint60_linear)"/>
<circle cx="358.781" cy="59.8175" r="3.26277" fill="url(#paint61_linear)"/>
<circle cx="393.584" cy="96.7956" r="3.26277" fill="url(#paint62_linear)"/>
<circle cx="378.357" cy="153.35" r="3.26277" fill="url(#paint63_linear)"/>
<circle cx="360.956" cy="194.679" r="3.26277" fill="url(#paint64_linear)"/>
<circle cx="341.38" cy="153.35" r="3.26277" fill="url(#paint65_linear)"/>
<circle cx="393.584" cy="164.226" r="3.26277" fill="url(#paint66_linear)"/>
<circle cx="393.584" cy="133.774" r="3.26277" fill="url(#paint67_linear)"/>
<circle cx="297.876" cy="135.949" r="3.26277" fill="url(#paint68_linear)"/>
<circle cx="236.971" cy="133.774" r="3.26277" fill="url(#paint69_linear)"/>
<circle cx="159.752" cy="178.365" r="4.35036" fill="url(#paint70_linear)"/>
<circle cx="145.613" cy="120.723" r="3.26277" fill="url(#paint71_linear)"/>
<circle cx="193.467" cy="68.5183" r="3.26277" fill="url(#paint72_linear)"/>
<circle cx="219.569" cy="64.1679" r="3.26277" fill="url(#paint73_linear)"/>
<circle cx="258.723" cy="57.6423" r="3.26277" fill="url(#paint74_linear)"/>
<circle cx="178.241" cy="242.533" r="3.26277" fill="url(#paint75_linear)"/>
<circle cx="197.818" cy="203.38" r="3.26277" fill="url(#paint76_linear)"/>
<circle cx="263.073" cy="249.058" r="3.26277" fill="url(#paint77_linear)"/>
<circle cx="263.073" cy="249.058" r="3.26277" fill="url(#paint78_linear)"/>
<circle cx="315.277" cy="268.635" r="3.26277" fill="url(#paint79_linear)"/>
<circle cx="269.598" cy="294.737" r="3.26277" fill="url(#paint80_linear)"/>
<circle cx="241.321" cy="277.336" r="3.26277" fill="url(#paint81_linear)"/>
<circle cx="331.591" cy="128.336" r="2.17518" fill="url(#paint82_linear)"/>
<circle cx="248.934" cy="91.3577" r="2.17518" fill="url(#paint83_linear)"/>
<circle cx="341.38" cy="59.8175" r="3.26277" fill="url(#paint84_linear)"/>
<circle cx="177.153" cy="117.46" r="4.35036" fill="url(#paint85_linear)"/>
<circle cx="346.818" cy="250.146" r="2.17518" fill="url(#paint86_linear)"/>
<circle cx="259.81" cy="208.818" r="2.17518" fill="url(#paint87_linear)"/>
<circle cx="211.956" cy="184.891" r="2.17518" fill="url(#paint88_linear)"/>
<circle cx="325.066" cy="219.693" r="2.17518" fill="url(#paint89_linear)"/>
<circle cx="223.92" cy="33.7153" r="3.26277" fill="url(#paint90_linear)"/>
<circle cx="199.993" cy="46.7664" r="3.26277" fill="url(#paint91_linear)"/>
</g>
<defs>
<filter id="filter0_d" x="134" y="0" width="269.022" height="306" filterUnits="userSpaceOnUse" color-interpolation-filters="sRGB">
<feFlood flood-opacity="0" result="BackgroundImageFix"/>
<feColorMatrix in="SourceAlpha" type="matrix" values="0 0 0 0 0 0 0 0 0 0 0 0 0 0 0 0 0 0 127 0" result="hardAlpha"/>
<feOffset dy="4"/>
<feGaussianBlur stdDeviation="2"/>
<feComposite in2="hardAlpha" operator="out"/>
<feColorMatrix type="matrix" values="0 0 0 0 0 0 0 0 0 0 0 0 0 0 0 0 0 0 0.25 0"/>
<feBlend mode="normal" in2="BackgroundImageFix" result="effect1_dropShadow"/>
<feBlend mode="normal" in="SourceGraphic" in2="effect1_dropShadow" result="shape"/>
</filter>
<linearGradient id="paint0_linear" x1="-24.4846" y1="150.683" x2="265.749" y2="167.612" gradientUnits="userSpaceOnUse">
<stop stop-color="#2AD1D1"/>
<stop offset="1" stop-color="#009EE1"/>
</linearGradient>
<linearGradient id="paint1_linear" x1="110.097" y1="20.878" x2="125.223" y2="21.8945" gradientUnits="userSpaceOnUse">
<stop stop-color="#2AD1D1"/>
<stop offset="1" stop-color="#009EE1"/>
</linearGradient>
<linearGradient id="paint2_linear" x1="-1.58413" y1="85.5356" x2="13.5417" y2="86.5521" gradientUnits="userSpaceOnUse">
<stop stop-color="#2AD1D1"/>
<stop offset="1" stop-color="#009EE1"/>
</linearGradient>
<linearGradient id="paint3_linear" x1="164.958" y1="54.1864" x2="180.084" y2="55.203" gradientUnits="userSpaceOnUse">
<stop stop-color="#2AD1D1"/>
<stop offset="1" stop-color="#009EE1"/>
</linearGradient>
<linearGradient id="paint4_linear" x1="221.778" y1="85.5356" x2="236.904" y2="86.5521" gradientUnits="userSpaceOnUse">
<stop stop-color="#2AD1D1"/>
<stop offset="1" stop-color="#009EE1"/>
</linearGradient>
<linearGradient id="paint5_linear" x1="221.778" y1="216.81" x2="236.904" y2="217.827" gradientUnits="userSpaceOnUse">
<stop stop-color="#2AD1D1"/>
<stop offset="1" stop-color="#009EE1"/>
</linearGradient>
<linearGradient id="paint6_linear" x1="129.69" y1="232.485" x2="144.816" y2="233.501" gradientUnits="userSpaceOnUse">
<stop stop-color="#2AD1D1"/>
<stop offset="1" stop-color="#009EE1"/>
</linearGradient>
<linearGradient id="paint7_linear" x1="55.2362" y1="248.159" x2="70.362" y2="249.176" gradientUnits="userSpaceOnUse">
<stop stop-color="#2AD1D1"/>
<stop offset="1" stop-color="#009EE1"/>
</linearGradient>
<linearGradient id="paint8_linear" x1="88.5447" y1="185.461" x2="103.671" y2="186.477" gradientUnits="userSpaceOnUse">
<stop stop-color="#2AD1D1"/>
<stop offset="1" stop-color="#009EE1"/>
</linearGradient>
<linearGradient id="paint9_linear" x1="-1.58413" y1="216.81" x2="13.5417" y2="217.827" gradientUnits="userSpaceOnUse">
<stop stop-color="#2AD1D1"/>
<stop offset="1" stop-color="#009EE1"/>
</linearGradient>
<linearGradient id="paint10_linear" x1="110.097" y1="150.193" x2="125.223" y2="151.21" gradientUnits="userSpaceOnUse">
<stop stop-color="#2AD1D1"/>
<stop offset="1" stop-color="#009EE1"/>
</linearGradient>
<linearGradient id="paint11_linear" x1="141.446" y1="199.176" x2="156.572" y2="200.193" gradientUnits="userSpaceOnUse">
<stop stop-color="#2AD1D1"/>
<stop offset="1" stop-color="#009EE1"/>
</linearGradient>
<linearGradient id="paint12_linear" x1="159.08" y1="158.03" x2="174.206" y2="159.047" gradientUnits="userSpaceOnUse">
<stop stop-color="#2AD1D1"/>
<stop offset="1" stop-color="#009EE1"/>
</linearGradient>
<linearGradient id="paint13_linear" x1="178.674" y1="189.38" x2="193.799" y2="190.396" gradientUnits="userSpaceOnUse">
<stop stop-color="#2AD1D1"/>
<stop offset="1" stop-color="#009EE1"/>
</linearGradient>
<linearGradient id="paint14_linear" x1="136.36" y1="35.5729" x2="143.923" y2="36.0812" gradientUnits="userSpaceOnUse">
<stop stop-color="#2AD1D1"/>
<stop offset="1" stop-color="#009EE1"/>
</linearGradient>
<linearGradient id="paint15_linear" x1="195.14" y1="68.8814" x2="202.703" y2="69.3896" gradientUnits="userSpaceOnUse">
<stop stop-color="#2AD1D1"/>
<stop offset="1" stop-color="#009EE1"/>
</linearGradient>
<linearGradient id="paint16_linear" x1="226.489" y1="102.19" x2="234.052" y2="102.698" gradientUnits="userSpaceOnUse">
<stop stop-color="#2AD1D1"/>
<stop offset="1" stop-color="#009EE1"/>
</linearGradient>
<linearGradient id="paint17_linear" x1="212.774" y1="153.132" x2="220.337" y2="153.64" gradientUnits="userSpaceOnUse">
<stop stop-color="#2AD1D1"/>
<stop offset="1" stop-color="#009EE1"/>
</linearGradient>
<linearGradient id="paint18_linear" x1="197.099" y1="190.359" x2="204.662" y2="190.867" gradientUnits="userSpaceOnUse">
<stop stop-color="#2AD1D1"/>
<stop offset="1" stop-color="#009EE1"/>
</linearGradient>
<linearGradient id="paint19_linear" x1="179.466" y1="153.132" x2="187.029" y2="153.64" gradientUnits="userSpaceOnUse">
<stop stop-color="#2AD1D1"/>
<stop offset="1" stop-color="#009EE1"/>
</linearGradient>
<linearGradient id="paint20_linear" x1="226.489" y1="162.929" x2="234.052" y2="163.437" gradientUnits="userSpaceOnUse">
<stop stop-color="#2AD1D1"/>
<stop offset="1" stop-color="#009EE1"/>
</linearGradient>
<linearGradient id="paint21_linear" x1="226.489" y1="135.498" x2="234.052" y2="136.007" gradientUnits="userSpaceOnUse">
<stop stop-color="#2AD1D1"/>
<stop offset="1" stop-color="#009EE1"/>
</linearGradient>
<linearGradient id="paint22_linear" x1="140.279" y1="137.458" x2="147.842" y2="137.966" gradientUnits="userSpaceOnUse">
<stop stop-color="#2AD1D1"/>
<stop offset="1" stop-color="#009EE1"/>
</linearGradient>
<linearGradient id="paint23_linear" x1="85.418" y1="135.498" x2="92.9809" y2="136.007" gradientUnits="userSpaceOnUse">
<stop stop-color="#2AD1D1"/>
<stop offset="1" stop-color="#009EE1"/>
</linearGradient>
<linearGradient id="paint24_linear" x1="14.6186" y1="175.664" x2="24.7025" y2="176.342" gradientUnits="userSpaceOnUse">
<stop stop-color="#2AD1D1"/>
<stop offset="1" stop-color="#009EE1"/>
</linearGradient>
<linearGradient id="paint25_linear" x1="3.12668" y1="123.742" x2="10.6896" y2="124.251" gradientUnits="userSpaceOnUse">
<stop stop-color="#2AD1D1"/>
<stop offset="1" stop-color="#009EE1"/>
</linearGradient>
<linearGradient id="paint26_linear" x1="46.2315" y1="76.7186" x2="53.7944" y2="77.2269" gradientUnits="userSpaceOnUse">
<stop stop-color="#2AD1D1"/>
<stop offset="1" stop-color="#009EE1"/>
</linearGradient>
<linearGradient id="paint27_linear" x1="69.7433" y1="72.7999" x2="77.3062" y2="73.3082" gradientUnits="userSpaceOnUse">
<stop stop-color="#2AD1D1"/>
<stop offset="1" stop-color="#009EE1"/>
</linearGradient>
<linearGradient id="paint28_linear" x1="105.011" y1="66.922" x2="112.574" y2="67.4303" gradientUnits="userSpaceOnUse">
<stop stop-color="#2AD1D1"/>
<stop offset="1" stop-color="#009EE1"/>
</linearGradient>
<linearGradient id="paint29_linear" x1="32.5164" y1="233.464" x2="40.0794" y2="233.972" gradientUnits="userSpaceOnUse">
<stop stop-color="#2AD1D1"/>
<stop offset="1" stop-color="#009EE1"/>
</linearGradient>
<linearGradient id="paint30_linear" x1="50.1503" y1="198.196" x2="57.7132" y2="198.705" gradientUnits="userSpaceOnUse">
<stop stop-color="#2AD1D1"/>
<stop offset="1" stop-color="#009EE1"/>
</linearGradient>
<linearGradient id="paint31_linear" x1="108.93" y1="239.342" x2="116.493" y2="239.85" gradientUnits="userSpaceOnUse">
<stop stop-color="#2AD1D1"/>
<stop offset="1" stop-color="#009EE1"/>
</linearGradient>
<linearGradient id="paint32_linear" x1="108.93" y1="239.342" x2="116.493" y2="239.85" gradientUnits="userSpaceOnUse">
<stop stop-color="#2AD1D1"/>
<stop offset="1" stop-color="#009EE1"/>
</linearGradient>
<linearGradient id="paint33_linear" x1="155.953" y1="256.976" x2="163.516" y2="257.484" gradientUnits="userSpaceOnUse">
<stop stop-color="#2AD1D1"/>
<stop offset="1" stop-color="#009EE1"/>
</linearGradient>
<linearGradient id="paint34_linear" x1="114.808" y1="280.488" x2="122.371" y2="280.996" gradientUnits="userSpaceOnUse">
<stop stop-color="#2AD1D1"/>
<stop offset="1" stop-color="#009EE1"/>
</linearGradient>
<linearGradient id="paint35_linear" x1="89.3368" y1="264.813" x2="96.8997" y2="265.322" gradientUnits="userSpaceOnUse">
<stop stop-color="#2AD1D1"/>
<stop offset="1" stop-color="#009EE1"/>
</linearGradient>
<linearGradient id="paint36_linear" x1="171.892" y1="130.6" x2="176.934" y2="130.939" gradientUnits="userSpaceOnUse">
<stop stop-color="#2AD1D1"/>
<stop offset="1" stop-color="#009EE1"/>
</linearGradient>
<linearGradient id="paint37_linear" x1="97.4379" y1="97.2915" x2="102.48" y2="97.6303" gradientUnits="userSpaceOnUse">
<stop stop-color="#2AD1D1"/>
<stop offset="1" stop-color="#009EE1"/>
</linearGradient>
<linearGradient id="paint38_linear" x1="179.466" y1="68.8814" x2="187.029" y2="69.3896" gradientUnits="userSpaceOnUse">
<stop stop-color="#2AD1D1"/>
<stop offset="1" stop-color="#009EE1"/>
</linearGradient>
<linearGradient id="paint39_linear" x1="30.2929" y1="120.803" x2="40.3767" y2="121.481" gradientUnits="userSpaceOnUse">
<stop stop-color="#2AD1D1"/>
<stop offset="1" stop-color="#009EE1"/>
</linearGradient>
<linearGradient id="paint40_linear" x1="185.608" y1="240.322" x2="190.65" y2="240.661" gradientUnits="userSpaceOnUse">
<stop stop-color="#2AD1D1"/>
<stop offset="1" stop-color="#009EE1"/>
</linearGradient>
<linearGradient id="paint41_linear" x1="107.235" y1="203.095" x2="112.277" y2="203.434" gradientUnits="userSpaceOnUse">
<stop stop-color="#2AD1D1"/>
<stop offset="1" stop-color="#009EE1"/>
</linearGradient>
<linearGradient id="paint42_linear" x1="64.1294" y1="181.542" x2="69.1714" y2="181.881" gradientUnits="userSpaceOnUse">
<stop stop-color="#2AD1D1"/>
<stop offset="1" stop-color="#009EE1"/>
</linearGradient>
<linearGradient id="paint43_linear" x1="166.014" y1="212.891" x2="171.056" y2="213.23" gradientUnits="userSpaceOnUse">
<stop stop-color="#2AD1D1"/>
<stop offset="1" stop-color="#009EE1"/>
</linearGradient>
<linearGradient id="paint44_linear" x1="73.6621" y1="45.3694" x2="81.225" y2="45.8777" gradientUnits="userSpaceOnUse">
<stop stop-color="#2AD1D1"/>
<stop offset="1" stop-color="#009EE1"/>
</linearGradient>
<linearGradient id="paint45_linear" x1="52.1095" y1="57.1254" x2="59.6724" y2="57.6337" gradientUnits="userSpaceOnUse">
<stop stop-color="#2AD1D1"/>
<stop offset="1" stop-color="#009EE1"/>
</linearGradient>
<linearGradient id="paint46_linear" x1="110.818" y1="150.631" x2="433.027" y2="169.426" gradientUnits="userSpaceOnUse">
<stop stop-color="#2AD1D1"/>
<stop offset="1" stop-color="#009EE1"/>
</linearGradient>
<linearGradient id="paint47_linear" x1="260.227" y1="6.52555" x2="277.019" y2="7.65409" gradientUnits="userSpaceOnUse">
<stop stop-color="#2AD1D1"/>
<stop offset="1" stop-color="#009EE1"/>
</linearGradient>
<linearGradient id="paint48_linear" x1="136.241" y1="78.3066" x2="153.034" y2="79.4351" gradientUnits="userSpaceOnUse">
<stop stop-color="#2AD1D1"/>
<stop offset="1" stop-color="#009EE1"/>
</linearGradient>
<linearGradient id="paint49_linear" x1="321.132" y1="43.5037" x2="337.924" y2="44.6322" gradientUnits="userSpaceOnUse">
<stop stop-color="#2AD1D1"/>
<stop offset="1" stop-color="#009EE1"/>
</linearGradient>
<linearGradient id="paint50_linear" x1="384.212" y1="78.3066" x2="401.004" y2="79.4351" gradientUnits="userSpaceOnUse">
<stop stop-color="#2AD1D1"/>
<stop offset="1" stop-color="#009EE1"/>
</linearGradient>
<linearGradient id="paint51_linear" x1="384.212" y1="224.044" x2="401.004" y2="225.172" gradientUnits="userSpaceOnUse">
<stop stop-color="#2AD1D1"/>
<stop offset="1" stop-color="#009EE1"/>
</linearGradient>
<linearGradient id="paint52_linear" x1="281.979" y1="241.445" x2="298.771" y2="242.574" gradientUnits="userSpaceOnUse">
<stop stop-color="#2AD1D1"/>
<stop offset="1" stop-color="#009EE1"/>
</linearGradient>
<linearGradient id="paint53_linear" x1="199.322" y1="258.847" x2="216.114" y2="259.975" gradientUnits="userSpaceOnUse">
<stop stop-color="#2AD1D1"/>
<stop offset="1" stop-color="#009EE1"/>
</linearGradient>
<linearGradient id="paint54_linear" x1="236.3" y1="189.241" x2="253.092" y2="190.369" gradientUnits="userSpaceOnUse">
<stop stop-color="#2AD1D1"/>
<stop offset="1" stop-color="#009EE1"/>
</linearGradient>
<linearGradient id="paint55_linear" x1="136.241" y1="224.044" x2="153.034" y2="225.172" gradientUnits="userSpaceOnUse">
<stop stop-color="#2AD1D1"/>
<stop offset="1" stop-color="#009EE1"/>
</linearGradient>
<linearGradient id="paint56_linear" x1="260.227" y1="150.088" x2="277.019" y2="151.216" gradientUnits="userSpaceOnUse">
<stop stop-color="#2AD1D1"/>
<stop offset="1" stop-color="#009EE1"/>
</linearGradient>
<linearGradient id="paint57_linear" x1="295.03" y1="204.467" x2="311.822" y2="205.596" gradientUnits="userSpaceOnUse">
<stop stop-color="#2AD1D1"/>
<stop offset="1" stop-color="#009EE1"/>
</linearGradient>
<linearGradient id="paint58_linear" x1="314.606" y1="158.788" x2="331.398" y2="159.917" gradientUnits="userSpaceOnUse">
<stop stop-color="#2AD1D1"/>
<stop offset="1" stop-color="#009EE1"/>
</linearGradient>
<linearGradient id="paint59_linear" x1="336.358" y1="193.591" x2="353.151" y2="194.72" gradientUnits="userSpaceOnUse">
<stop stop-color="#2AD1D1"/>
<stop offset="1" stop-color="#009EE1"/>
</linearGradient>
<linearGradient id="paint60_linear" x1="289.383" y1="22.8394" x2="297.78" y2="23.4037" gradientUnits="userSpaceOnUse">
<stop stop-color="#2AD1D1"/>
<stop offset="1" stop-color="#009EE1"/>
</linearGradient>
<linearGradient id="paint61_linear" x1="354.639" y1="59.8175" x2="363.035" y2="60.3817" gradientUnits="userSpaceOnUse">
<stop stop-color="#2AD1D1"/>
<stop offset="1" stop-color="#009EE1"/>
</linearGradient>
<linearGradient id="paint62_linear" x1="389.442" y1="96.7956" x2="397.838" y2="97.3599" gradientUnits="userSpaceOnUse">
<stop stop-color="#2AD1D1"/>
<stop offset="1" stop-color="#009EE1"/>
</linearGradient>
<linearGradient id="paint63_linear" x1="374.215" y1="153.35" x2="382.611" y2="153.915" gradientUnits="userSpaceOnUse">
<stop stop-color="#2AD1D1"/>
<stop offset="1" stop-color="#009EE1"/>
</linearGradient>
<linearGradient id="paint64_linear" x1="356.814" y1="194.679" x2="365.21" y2="195.243" gradientUnits="userSpaceOnUse">
<stop stop-color="#2AD1D1"/>
<stop offset="1" stop-color="#009EE1"/>
</linearGradient>
<linearGradient id="paint65_linear" x1="337.238" y1="153.35" x2="345.634" y2="153.915" gradientUnits="userSpaceOnUse">
<stop stop-color="#2AD1D1"/>
<stop offset="1" stop-color="#009EE1"/>
</linearGradient>
<linearGradient id="paint66_linear" x1="389.442" y1="164.226" x2="397.838" y2="164.791" gradientUnits="userSpaceOnUse">
<stop stop-color="#2AD1D1"/>
<stop offset="1" stop-color="#009EE1"/>
</linearGradient>
<linearGradient id="paint67_linear" x1="389.442" y1="133.774" x2="397.838" y2="134.338" gradientUnits="userSpaceOnUse">
<stop stop-color="#2AD1D1"/>
<stop offset="1" stop-color="#009EE1"/>
</linearGradient>
<linearGradient id="paint68_linear" x1="293.734" y1="135.949" x2="302.13" y2="136.513" gradientUnits="userSpaceOnUse">
<stop stop-color="#2AD1D1"/>
<stop offset="1" stop-color="#009EE1"/>
</linearGradient>
<linearGradient id="paint69_linear" x1="232.829" y1="133.774" x2="241.225" y2="134.338" gradientUnits="userSpaceOnUse">
<stop stop-color="#2AD1D1"/>
<stop offset="1" stop-color="#009EE1"/>
</linearGradient>
<linearGradient id="paint70_linear" x1="154.229" y1="178.365" x2="165.424" y2="179.117" gradientUnits="userSpaceOnUse">
<stop stop-color="#2AD1D1"/>
<stop offset="1" stop-color="#009EE1"/>
</linearGradient>
<linearGradient id="paint71_linear" x1="141.471" y1="120.723" x2="149.867" y2="121.287" gradientUnits="userSpaceOnUse">
<stop stop-color="#2AD1D1"/>
<stop offset="1" stop-color="#009EE1"/>
</linearGradient>
<linearGradient id="paint72_linear" x1="189.325" y1="68.5183" x2="197.721" y2="69.0825" gradientUnits="userSpaceOnUse">
<stop stop-color="#2AD1D1"/>
<stop offset="1" stop-color="#009EE1"/>
</linearGradient>
<linearGradient id="paint73_linear" x1="215.427" y1="64.1679" x2="223.823" y2="64.7322" gradientUnits="userSpaceOnUse">
<stop stop-color="#2AD1D1"/>
<stop offset="1" stop-color="#009EE1"/>
</linearGradient>
<linearGradient id="paint74_linear" x1="254.581" y1="57.6423" x2="262.977" y2="58.2066" gradientUnits="userSpaceOnUse">
<stop stop-color="#2AD1D1"/>
<stop offset="1" stop-color="#009EE1"/>
</linearGradient>
<linearGradient id="paint75_linear" x1="174.099" y1="242.533" x2="182.495" y2="243.097" gradientUnits="userSpaceOnUse">
<stop stop-color="#2AD1D1"/>
<stop offset="1" stop-color="#009EE1"/>
</linearGradient>
<linearGradient id="paint76_linear" x1="193.675" y1="203.38" x2="202.072" y2="203.944" gradientUnits="userSpaceOnUse">
<stop stop-color="#2AD1D1"/>
<stop offset="1" stop-color="#009EE1"/>
</linearGradient>
<linearGradient id="paint77_linear" x1="258.931" y1="249.058" x2="267.327" y2="249.623" gradientUnits="userSpaceOnUse">
<stop stop-color="#2AD1D1"/>
<stop offset="1" stop-color="#009EE1"/>
</linearGradient>
<linearGradient id="paint78_linear" x1="258.931" y1="249.058" x2="267.327" y2="249.623" gradientUnits="userSpaceOnUse">
<stop stop-color="#2AD1D1"/>
<stop offset="1" stop-color="#009EE1"/>
</linearGradient>
<linearGradient id="paint79_linear" x1="311.135" y1="268.635" x2="319.531" y2="269.199" gradientUnits="userSpaceOnUse">
<stop stop-color="#2AD1D1"/>
<stop offset="1" stop-color="#009EE1"/>
</linearGradient>
<linearGradient id="paint80_linear" x1="265.456" y1="294.737" x2="273.852" y2="295.302" gradientUnits="userSpaceOnUse">
<stop stop-color="#2AD1D1"/>
<stop offset="1" stop-color="#009EE1"/>
</linearGradient>
<linearGradient id="paint81_linear" x1="237.179" y1="277.336" x2="245.575" y2="277.9" gradientUnits="userSpaceOnUse">
<stop stop-color="#2AD1D1"/>
<stop offset="1" stop-color="#009EE1"/>
</linearGradient>
<linearGradient id="paint82_linear" x1="328.83" y1="128.336" x2="334.427" y2="128.712" gradientUnits="userSpaceOnUse">
<stop stop-color="#2AD1D1"/>
<stop offset="1" stop-color="#009EE1"/>
</linearGradient>
<linearGradient id="paint83_linear" x1="246.173" y1="91.3577" x2="251.77" y2="91.7339" gradientUnits="userSpaceOnUse">
<stop stop-color="#2AD1D1"/>
<stop offset="1" stop-color="#009EE1"/>
</linearGradient>
<linearGradient id="paint84_linear" x1="337.238" y1="59.8175" x2="345.634" y2="60.3817" gradientUnits="userSpaceOnUse">
<stop stop-color="#2AD1D1"/>
<stop offset="1" stop-color="#009EE1"/>
</linearGradient>
<linearGradient id="paint85_linear" x1="171.63" y1="117.46" x2="182.825" y2="118.212" gradientUnits="userSpaceOnUse">
<stop stop-color="#2AD1D1"/>
<stop offset="1" stop-color="#009EE1"/>
</linearGradient>
<linearGradient id="paint86_linear" x1="344.056" y1="250.146" x2="349.654" y2="250.522" gradientUnits="userSpaceOnUse">
<stop stop-color="#2AD1D1"/>
<stop offset="1" stop-color="#009EE1"/>
</linearGradient>
<linearGradient id="paint87_linear" x1="257.049" y1="208.818" x2="262.646" y2="209.194" gradientUnits="userSpaceOnUse">
<stop stop-color="#2AD1D1"/>
<stop offset="1" stop-color="#009EE1"/>
</linearGradient>
<linearGradient id="paint88_linear" x1="209.195" y1="184.891" x2="214.792" y2="185.267" gradientUnits="userSpaceOnUse">
<stop stop-color="#2AD1D1"/>
<stop offset="1" stop-color="#009EE1"/>
</linearGradient>
<linearGradient id="paint89_linear" x1="322.304" y1="219.693" x2="327.902" y2="220.07" gradientUnits="userSpaceOnUse">
<stop stop-color="#2AD1D1"/>
<stop offset="1" stop-color="#009EE1"/>
</linearGradient>
<linearGradient id="paint90_linear" x1="219.778" y1="33.7153" x2="228.174" y2="34.2796" gradientUnits="userSpaceOnUse">
<stop stop-color="#2AD1D1"/>
<stop offset="1" stop-color="#009EE1"/>
</linearGradient>
<linearGradient id="paint91_linear" x1="195.85" y1="46.7664" x2="204.247" y2="47.3307" gradientUnits="userSpaceOnUse">
<stop stop-color="#2AD1D1"/>
<stop offset="1" stop-color="#009EE1"/>
</linearGradient>
</defs>
</svg>
