<svg width="184" height="211" viewBox="0 0 184 211" fill="none" xmlns="http://www.w3.org/2000/svg">
<path d="M92.0001 4.59985L124.2 189.367M92.0001 4.59985L135.7 30.6665M92.0001 4.59985L43.7 32.9867M124.2 189.367L179.4 158.7M124.2 189.367L123.27 189.925M135.7 30.6665L4.60004 158.7M135.7 30.6665L154.867 41.3869M135.7 30.6665L49.0667 183.233M135.7 30.6665L4.60004 55.9665M135.7 30.6665L180.361 94.2999M4.60004 158.7V55.9665M4.60004 158.7L5.3667 158.253M4.60004 158.7L180.933 55.9665M4.60004 158.7L43.7 32.9867M4.60004 55.9665L179.4 158.7M4.60004 55.9665L43.7 32.9867M4.60004 55.9665L123.27 189.925M180.933 55.9665L154.867 41.3869M180.933 55.9665L180.361 94.2999M180.933 55.9665L43.7 32.9867M179.4 158.7L49.0667 183.233M179.4 158.7L180.361 94.2999M179.4 158.7L43.7 32.9867M179.4 158.7L154.867 41.3869M179.4 158.7L71.3001 195.5M93.5334 207.767L154.867 41.3869M93.5334 207.767L123.27 189.925M93.5334 207.767L180.361 94.2999M93.5334 207.767L71.3001 195.5M49.0667 183.233L5.3667 158.253M49.0667 183.233L71.3001 195.5M5.3667 158.253L180.361 94.2999" stroke="url(#paint0_linear)" stroke-width="1.3"/>
<circle cx="92.0001" cy="4.6" r="4.6" fill="url(#paint1_linear)"/>
<circle cx="4.6" cy="55.1999" r="4.6" fill="url(#paint2_linear)"/>
<circle cx="134.933" cy="30.6668" r="4.6" fill="url(#paint3_linear)"/>
<circle cx="179.4" cy="55.1999" r="4.6" fill="url(#paint4_linear)"/>
<circle cx="179.4" cy="157.933" r="4.6" fill="url(#paint5_linear)"/>
<circle cx="107.333" cy="170.2" r="4.6" fill="url(#paint6_linear)"/>
<circle cx="49.0668" cy="182.466" r="4.6" fill="url(#paint7_linear)"/>
<circle cx="75.1334" cy="133.4" r="4.6" fill="url(#paint8_linear)"/>
<circle cx="4.6" cy="157.933" r="4.6" fill="url(#paint9_linear)"/>
<circle cx="92.0001" cy="105.8" r="4.6" fill="url(#paint10_linear)"/>
<circle cx="116.533" cy="144.133" r="4.6" fill="url(#paint11_linear)"/>
<circle cx="130.333" cy="111.933" r="4.6" fill="url(#paint12_linear)"/>
<circle cx="145.667" cy="136.467" r="4.6" fill="url(#paint13_linear)"/>
<circle cx="109.633" cy="16.1003" r="2.3" fill="url(#paint14_linear)"/>
<circle cx="155.633" cy="42.1671" r="2.3" fill="url(#paint15_linear)"/>
<circle cx="180.167" cy="68.2332" r="2.3" fill="url(#paint16_linear)"/>
<circle cx="169.433" cy="108.1" r="2.3" fill="url(#paint17_linear)"/>
<circle cx="157.167" cy="137.233" r="2.3" fill="url(#paint18_linear)"/>
<circle cx="143.367" cy="108.1" r="2.3" fill="url(#paint19_linear)"/>
<circle cx="180.167" cy="115.767" r="2.3" fill="url(#paint20_linear)"/>
<circle cx="180.167" cy="94.3" r="2.3" fill="url(#paint21_linear)"/>
<circle cx="112.7" cy="95.8337" r="2.3" fill="url(#paint22_linear)"/>
<circle cx="69.7666" cy="94.3" r="2.3" fill="url(#paint23_linear)"/>
<circle cx="15.3334" cy="125.733" r="3.06667" fill="url(#paint24_linear)"/>
<circle cx="5.36683" cy="85.1003" r="2.3" fill="url(#paint25_linear)"/>
<circle cx="39.0999" cy="48.3" r="2.3" fill="url(#paint26_linear)"/>
<circle cx="57.4999" cy="45.2332" r="2.3" fill="url(#paint27_linear)"/>
<circle cx="85.1003" cy="40.6334" r="2.3" fill="url(#paint28_linear)"/>
<circle cx="28.3667" cy="170.967" r="2.3" fill="url(#paint29_linear)"/>
<circle cx="42.1668" cy="143.367" r="2.3" fill="url(#paint30_linear)"/>
<circle cx="88.1666" cy="175.566" r="2.3" fill="url(#paint31_linear)"/>
<circle cx="88.1666" cy="175.566" r="2.3" fill="url(#paint32_linear)"/>
<circle cx="124.967" cy="189.367" r="2.3" fill="url(#paint33_linear)"/>
<circle cx="92.7666" cy="207.767" r="2.3" fill="url(#paint34_linear)"/>
<circle cx="72.8334" cy="195.5" r="2.3" fill="url(#paint35_linear)"/>
<circle cx="136.467" cy="90.4666" r="1.53333" fill="url(#paint36_linear)"/>
<circle cx="78.2" cy="64.4004" r="1.53333" fill="url(#paint37_linear)"/>
<circle cx="143.367" cy="42.1671" r="2.3" fill="url(#paint38_linear)"/>
<circle cx="27.5999" cy="82.8002" r="3.06667" fill="url(#paint39_linear)"/>
<circle cx="147.2" cy="176.334" r="1.53333" fill="url(#paint40_linear)"/>
<circle cx="85.8668" cy="147.2" r="1.53333" fill="url(#paint41_linear)"/>
<circle cx="52.1332" cy="130.334" r="1.53333" fill="url(#paint42_linear)"/>
<circle cx="131.867" cy="154.867" r="1.53333" fill="url(#paint43_linear)"/>
<circle cx="60.5667" cy="23.7662" r="2.3" fill="url(#paint44_linear)"/>
<circle cx="43.7" cy="32.9666" r="2.3" fill="url(#paint45_linear)"/>
<defs>
<linearGradient id="paint0_linear" x1="-19.1612" y1="106.183" x2="207.971" y2="119.432" gradientUnits="userSpaceOnUse">
<stop stop-color="#2AD1D1"/>
<stop offset="1" stop-color="#009EE1"/>
</linearGradient>
<linearGradient id="paint1_linear" x1="86.1604" y1="4.6" x2="97.9977" y2="5.39554" gradientUnits="userSpaceOnUse">
<stop stop-color="#2AD1D1"/>
<stop offset="1" stop-color="#009EE1"/>
</linearGradient>
<linearGradient id="paint2_linear" x1="-1.23972" y1="55.1999" x2="10.5975" y2="55.9954" gradientUnits="userSpaceOnUse">
<stop stop-color="#2AD1D1"/>
<stop offset="1" stop-color="#009EE1"/>
</linearGradient>
<linearGradient id="paint3_linear" x1="129.094" y1="30.6668" x2="140.931" y2="31.4623" gradientUnits="userSpaceOnUse">
<stop stop-color="#2AD1D1"/>
<stop offset="1" stop-color="#009EE1"/>
</linearGradient>
<linearGradient id="paint4_linear" x1="173.56" y1="55.1999" x2="185.397" y2="55.9954" gradientUnits="userSpaceOnUse">
<stop stop-color="#2AD1D1"/>
<stop offset="1" stop-color="#009EE1"/>
</linearGradient>
<linearGradient id="paint5_linear" x1="173.56" y1="157.933" x2="185.397" y2="158.729" gradientUnits="userSpaceOnUse">
<stop stop-color="#2AD1D1"/>
<stop offset="1" stop-color="#009EE1"/>
</linearGradient>
<linearGradient id="paint6_linear" x1="101.494" y1="170.2" x2="113.331" y2="170.995" gradientUnits="userSpaceOnUse">
<stop stop-color="#2AD1D1"/>
<stop offset="1" stop-color="#009EE1"/>
</linearGradient>
<linearGradient id="paint7_linear" x1="43.2271" y1="182.466" x2="55.0643" y2="183.262" gradientUnits="userSpaceOnUse">
<stop stop-color="#2AD1D1"/>
<stop offset="1" stop-color="#009EE1"/>
</linearGradient>
<linearGradient id="paint8_linear" x1="69.2937" y1="133.4" x2="81.1309" y2="134.196" gradientUnits="userSpaceOnUse">
<stop stop-color="#2AD1D1"/>
<stop offset="1" stop-color="#009EE1"/>
</linearGradient>
<linearGradient id="paint9_linear" x1="-1.23972" y1="157.933" x2="10.5975" y2="158.729" gradientUnits="userSpaceOnUse">
<stop stop-color="#2AD1D1"/>
<stop offset="1" stop-color="#009EE1"/>
</linearGradient>
<linearGradient id="paint10_linear" x1="86.1604" y1="105.8" x2="97.9977" y2="106.596" gradientUnits="userSpaceOnUse">
<stop stop-color="#2AD1D1"/>
<stop offset="1" stop-color="#009EE1"/>
</linearGradient>
<linearGradient id="paint11_linear" x1="110.694" y1="144.133" x2="122.531" y2="144.929" gradientUnits="userSpaceOnUse">
<stop stop-color="#2AD1D1"/>
<stop offset="1" stop-color="#009EE1"/>
</linearGradient>
<linearGradient id="paint12_linear" x1="124.494" y1="111.933" x2="136.331" y2="112.729" gradientUnits="userSpaceOnUse">
<stop stop-color="#2AD1D1"/>
<stop offset="1" stop-color="#009EE1"/>
</linearGradient>
<linearGradient id="paint13_linear" x1="139.827" y1="136.467" x2="151.664" y2="137.263" gradientUnits="userSpaceOnUse">
<stop stop-color="#2AD1D1"/>
<stop offset="1" stop-color="#009EE1"/>
</linearGradient>
<linearGradient id="paint14_linear" x1="106.713" y1="16.1003" x2="112.632" y2="16.4981" gradientUnits="userSpaceOnUse">
<stop stop-color="#2AD1D1"/>
<stop offset="1" stop-color="#009EE1"/>
</linearGradient>
<linearGradient id="paint15_linear" x1="152.714" y1="42.1671" x2="158.632" y2="42.5648" gradientUnits="userSpaceOnUse">
<stop stop-color="#2AD1D1"/>
<stop offset="1" stop-color="#009EE1"/>
</linearGradient>
<linearGradient id="paint16_linear" x1="177.247" y1="68.2332" x2="183.165" y2="68.631" gradientUnits="userSpaceOnUse">
<stop stop-color="#2AD1D1"/>
<stop offset="1" stop-color="#009EE1"/>
</linearGradient>
<linearGradient id="paint17_linear" x1="166.513" y1="108.1" x2="172.432" y2="108.498" gradientUnits="userSpaceOnUse">
<stop stop-color="#2AD1D1"/>
<stop offset="1" stop-color="#009EE1"/>
</linearGradient>
<linearGradient id="paint18_linear" x1="154.247" y1="137.233" x2="160.165" y2="137.631" gradientUnits="userSpaceOnUse">
<stop stop-color="#2AD1D1"/>
<stop offset="1" stop-color="#009EE1"/>
</linearGradient>
<linearGradient id="paint19_linear" x1="140.447" y1="108.1" x2="146.366" y2="108.498" gradientUnits="userSpaceOnUse">
<stop stop-color="#2AD1D1"/>
<stop offset="1" stop-color="#009EE1"/>
</linearGradient>
<linearGradient id="paint20_linear" x1="177.247" y1="115.767" x2="183.165" y2="116.165" gradientUnits="userSpaceOnUse">
<stop stop-color="#2AD1D1"/>
<stop offset="1" stop-color="#009EE1"/>
</linearGradient>
<linearGradient id="paint21_linear" x1="177.247" y1="94.3" x2="183.165" y2="94.6978" gradientUnits="userSpaceOnUse">
<stop stop-color="#2AD1D1"/>
<stop offset="1" stop-color="#009EE1"/>
</linearGradient>
<linearGradient id="paint22_linear" x1="109.78" y1="95.8337" x2="115.699" y2="96.2315" gradientUnits="userSpaceOnUse">
<stop stop-color="#2AD1D1"/>
<stop offset="1" stop-color="#009EE1"/>
</linearGradient>
<linearGradient id="paint23_linear" x1="66.8468" y1="94.3" x2="72.7654" y2="94.6978" gradientUnits="userSpaceOnUse">
<stop stop-color="#2AD1D1"/>
<stop offset="1" stop-color="#009EE1"/>
</linearGradient>
<linearGradient id="paint24_linear" x1="11.4402" y1="125.733" x2="19.3317" y2="126.264" gradientUnits="userSpaceOnUse">
<stop stop-color="#2AD1D1"/>
<stop offset="1" stop-color="#009EE1"/>
</linearGradient>
<linearGradient id="paint25_linear" x1="2.44698" y1="85.1003" x2="8.3656" y2="85.4981" gradientUnits="userSpaceOnUse">
<stop stop-color="#2AD1D1"/>
<stop offset="1" stop-color="#009EE1"/>
</linearGradient>
<linearGradient id="paint26_linear" x1="36.1801" y1="48.3" x2="42.0987" y2="48.6978" gradientUnits="userSpaceOnUse">
<stop stop-color="#2AD1D1"/>
<stop offset="1" stop-color="#009EE1"/>
</linearGradient>
<linearGradient id="paint27_linear" x1="54.58" y1="45.2332" x2="60.4987" y2="45.631" gradientUnits="userSpaceOnUse">
<stop stop-color="#2AD1D1"/>
<stop offset="1" stop-color="#009EE1"/>
</linearGradient>
<linearGradient id="paint28_linear" x1="82.1804" y1="40.6334" x2="88.0991" y2="41.0311" gradientUnits="userSpaceOnUse">
<stop stop-color="#2AD1D1"/>
<stop offset="1" stop-color="#009EE1"/>
</linearGradient>
<linearGradient id="paint29_linear" x1="25.4468" y1="170.967" x2="31.3654" y2="171.364" gradientUnits="userSpaceOnUse">
<stop stop-color="#2AD1D1"/>
<stop offset="1" stop-color="#009EE1"/>
</linearGradient>
<linearGradient id="paint30_linear" x1="39.2469" y1="143.367" x2="45.1655" y2="143.765" gradientUnits="userSpaceOnUse">
<stop stop-color="#2AD1D1"/>
<stop offset="1" stop-color="#009EE1"/>
</linearGradient>
<linearGradient id="paint31_linear" x1="85.2467" y1="175.566" x2="91.1653" y2="175.964" gradientUnits="userSpaceOnUse">
<stop stop-color="#2AD1D1"/>
<stop offset="1" stop-color="#009EE1"/>
</linearGradient>
<linearGradient id="paint32_linear" x1="85.2467" y1="175.566" x2="91.1653" y2="175.964" gradientUnits="userSpaceOnUse">
<stop stop-color="#2AD1D1"/>
<stop offset="1" stop-color="#009EE1"/>
</linearGradient>
<linearGradient id="paint33_linear" x1="122.047" y1="189.367" x2="127.965" y2="189.765" gradientUnits="userSpaceOnUse">
<stop stop-color="#2AD1D1"/>
<stop offset="1" stop-color="#009EE1"/>
</linearGradient>
<linearGradient id="paint34_linear" x1="89.8468" y1="207.767" x2="95.7654" y2="208.165" gradientUnits="userSpaceOnUse">
<stop stop-color="#2AD1D1"/>
<stop offset="1" stop-color="#009EE1"/>
</linearGradient>
<linearGradient id="paint35_linear" x1="69.9135" y1="195.5" x2="75.8322" y2="195.898" gradientUnits="userSpaceOnUse">
<stop stop-color="#2AD1D1"/>
<stop offset="1" stop-color="#009EE1"/>
</linearGradient>
<linearGradient id="paint36_linear" x1="134.52" y1="90.4666" x2="138.466" y2="90.7317" gradientUnits="userSpaceOnUse">
<stop stop-color="#2AD1D1"/>
<stop offset="1" stop-color="#009EE1"/>
</linearGradient>
<linearGradient id="paint37_linear" x1="76.2534" y1="64.4004" x2="80.1992" y2="64.6656" gradientUnits="userSpaceOnUse">
<stop stop-color="#2AD1D1"/>
<stop offset="1" stop-color="#009EE1"/>
</linearGradient>
<linearGradient id="paint38_linear" x1="140.447" y1="42.1671" x2="146.366" y2="42.5648" gradientUnits="userSpaceOnUse">
<stop stop-color="#2AD1D1"/>
<stop offset="1" stop-color="#009EE1"/>
</linearGradient>
<linearGradient id="paint39_linear" x1="23.7067" y1="82.8002" x2="31.5982" y2="83.3305" gradientUnits="userSpaceOnUse">
<stop stop-color="#2AD1D1"/>
<stop offset="1" stop-color="#009EE1"/>
</linearGradient>
<linearGradient id="paint40_linear" x1="145.254" y1="176.334" x2="149.199" y2="176.599" gradientUnits="userSpaceOnUse">
<stop stop-color="#2AD1D1"/>
<stop offset="1" stop-color="#009EE1"/>
</linearGradient>
<linearGradient id="paint41_linear" x1="83.9203" y1="147.2" x2="87.866" y2="147.465" gradientUnits="userSpaceOnUse">
<stop stop-color="#2AD1D1"/>
<stop offset="1" stop-color="#009EE1"/>
</linearGradient>
<linearGradient id="paint42_linear" x1="50.1866" y1="130.334" x2="54.1324" y2="130.599" gradientUnits="userSpaceOnUse">
<stop stop-color="#2AD1D1"/>
<stop offset="1" stop-color="#009EE1"/>
</linearGradient>
<linearGradient id="paint43_linear" x1="129.92" y1="154.867" x2="133.866" y2="155.132" gradientUnits="userSpaceOnUse">
<stop stop-color="#2AD1D1"/>
<stop offset="1" stop-color="#009EE1"/>
</linearGradient>
<linearGradient id="paint44_linear" x1="57.6469" y1="23.7662" x2="63.5655" y2="24.164" gradientUnits="userSpaceOnUse">
<stop stop-color="#2AD1D1"/>
<stop offset="1" stop-color="#009EE1"/>
</linearGradient>
<linearGradient id="paint45_linear" x1="40.7801" y1="32.9666" x2="46.6987" y2="33.3644" gradientUnits="userSpaceOnUse">
<stop stop-color="#2AD1D1"/>
<stop offset="1" stop-color="#009EE1"/>
</linearGradient>
</defs>
</svg>
