<svg width="182" height="207" viewBox="0 0 182 207" fill="none" xmlns="http://www.w3.org/2000/svg">
<g opacity="0.15">
<path d="M90.5135 4.52588L122.193 186.307M90.5135 4.52588L133.507 30.1714M90.5135 4.52588L42.9939 32.4541M122.193 186.307L176.501 156.136M122.193 186.307L121.278 186.857M133.507 30.1714L4.52563 156.136M133.507 30.1714L152.364 40.7185M133.507 30.1714L48.2738 180.273M133.507 30.1714L4.52563 55.0626M133.507 30.1714L177.447 92.7766M4.52563 156.136V55.0626M4.52563 156.136L5.27991 155.697M4.52563 156.136L178.01 55.0626M4.52563 156.136L42.9939 32.4541M4.52563 55.0626L176.501 156.136M4.52563 55.0626L42.9939 32.4541M4.52563 55.0626L121.278 186.857M178.01 55.0626L152.364 40.7185M178.01 55.0626L177.447 92.7766M178.01 55.0626L42.9939 32.4541M176.501 156.136L48.2738 180.273M176.501 156.136L177.447 92.7766M176.501 156.136L42.9939 32.4541M176.501 156.136L152.364 40.7185M176.501 156.136L70.148 192.341M92.0221 204.41L152.364 40.7185M92.0221 204.41L121.278 186.857M92.0221 204.41L177.447 92.7766M92.0221 204.41L70.148 192.341M48.2738 180.273L5.27991 155.697M48.2738 180.273L70.148 192.341M5.27991 155.697L177.447 92.7766" stroke="url(#paint0_linear)" stroke-width="1.3"/>
<circle cx="90.5137" cy="4.52568" r="4.52568" fill="url(#paint1_linear)"/>
<circle cx="4.52568" cy="54.3084" r="4.52568" fill="url(#paint2_linear)"/>
<circle cx="132.753" cy="30.1713" r="4.52568" fill="url(#paint3_linear)"/>
<circle cx="176.501" cy="54.3084" r="4.52568" fill="url(#paint4_linear)"/>
<circle cx="176.501" cy="155.382" r="4.52568" fill="url(#paint5_linear)"/>
<circle cx="105.599" cy="167.45" r="4.52568" fill="url(#paint6_linear)"/>
<circle cx="48.274" cy="179.519" r="4.52568" fill="url(#paint7_linear)"/>
<circle cx="73.9195" cy="131.245" r="4.52568" fill="url(#paint8_linear)"/>
<circle cx="4.52568" cy="155.382" r="4.52568" fill="url(#paint9_linear)"/>
<circle cx="90.5137" cy="104.09" r="4.52568" fill="url(#paint10_linear)"/>
<circle cx="114.65" cy="141.805" r="4.52568" fill="url(#paint11_linear)"/>
<circle cx="128.227" cy="110.125" r="4.52568" fill="url(#paint12_linear)"/>
<circle cx="143.313" cy="134.262" r="4.52568" fill="url(#paint13_linear)"/>
<circle cx="107.862" cy="15.8396" r="2.26284" fill="url(#paint14_linear)"/>
<circle cx="153.119" cy="41.4853" r="2.26284" fill="url(#paint15_linear)"/>
<circle cx="177.256" cy="67.1309" r="2.26284" fill="url(#paint16_linear)"/>
<circle cx="166.696" cy="106.353" r="2.26284" fill="url(#paint17_linear)"/>
<circle cx="154.627" cy="135.016" r="2.26284" fill="url(#paint18_linear)"/>
<circle cx="141.05" cy="106.353" r="2.26284" fill="url(#paint19_linear)"/>
<circle cx="177.256" cy="113.896" r="2.26284" fill="url(#paint20_linear)"/>
<circle cx="177.256" cy="92.7766" r="2.26284" fill="url(#paint21_linear)"/>
<circle cx="110.879" cy="94.2852" r="2.26284" fill="url(#paint22_linear)"/>
<circle cx="68.6394" cy="92.7766" r="2.26284" fill="url(#paint23_linear)"/>
<circle cx="15.0856" cy="123.702" r="3.01712" fill="url(#paint24_linear)"/>
<circle cx="5.28005" cy="83.7249" r="2.26284" fill="url(#paint25_linear)"/>
<circle cx="38.4683" cy="47.5197" r="2.26284" fill="url(#paint26_linear)"/>
<circle cx="56.5708" cy="44.5025" r="2.26284" fill="url(#paint27_linear)"/>
<circle cx="83.7252" cy="39.9767" r="2.26284" fill="url(#paint28_linear)"/>
<circle cx="27.9083" cy="168.204" r="2.26284" fill="url(#paint29_linear)"/>
<circle cx="41.4854" cy="141.05" r="2.26284" fill="url(#paint30_linear)"/>
<circle cx="86.7421" cy="172.73" r="2.26284" fill="url(#paint31_linear)"/>
<circle cx="86.7421" cy="172.73" r="2.26284" fill="url(#paint32_linear)"/>
<circle cx="122.947" cy="186.307" r="2.26284" fill="url(#paint33_linear)"/>
<circle cx="91.2677" cy="204.409" r="2.26284" fill="url(#paint34_linear)"/>
<circle cx="71.6566" cy="192.341" r="2.26284" fill="url(#paint35_linear)"/>
<circle cx="134.262" cy="89.0051" r="1.50856" fill="url(#paint36_linear)"/>
<circle cx="76.9364" cy="63.3594" r="1.50856" fill="url(#paint37_linear)"/>
<circle cx="141.05" cy="41.4853" r="2.26284" fill="url(#paint38_linear)"/>
<circle cx="27.154" cy="81.4619" r="3.01712" fill="url(#paint39_linear)"/>
<circle cx="144.822" cy="173.484" r="1.50856" fill="url(#paint40_linear)"/>
<circle cx="84.4794" cy="144.822" r="1.50856" fill="url(#paint41_linear)"/>
<circle cx="51.2909" cy="128.228" r="1.50856" fill="url(#paint42_linear)"/>
<circle cx="129.736" cy="152.365" r="1.50856" fill="url(#paint43_linear)"/>
<circle cx="59.588" cy="23.3827" r="2.26284" fill="url(#paint44_linear)"/>
<circle cx="42.9938" cy="32.4343" r="2.26284" fill="url(#paint45_linear)"/>
</g>
<defs>
<linearGradient id="paint0_linear" x1="-18.8517" y1="104.468" x2="204.611" y2="117.502" gradientUnits="userSpaceOnUse">
<stop stop-color="#2AD1D1"/>
<stop offset="1" stop-color="#009EE1"/>
</linearGradient>
<linearGradient id="paint1_linear" x1="84.7684" y1="4.52568" x2="96.4143" y2="5.30836" gradientUnits="userSpaceOnUse">
<stop stop-color="#2AD1D1"/>
<stop offset="1" stop-color="#009EE1"/>
</linearGradient>
<linearGradient id="paint2_linear" x1="-1.21969" y1="54.3084" x2="10.4263" y2="55.0911" gradientUnits="userSpaceOnUse">
<stop stop-color="#2AD1D1"/>
<stop offset="1" stop-color="#009EE1"/>
</linearGradient>
<linearGradient id="paint3_linear" x1="127.008" y1="30.1713" x2="138.654" y2="30.954" gradientUnits="userSpaceOnUse">
<stop stop-color="#2AD1D1"/>
<stop offset="1" stop-color="#009EE1"/>
</linearGradient>
<linearGradient id="paint4_linear" x1="170.756" y1="54.3084" x2="182.402" y2="55.0911" gradientUnits="userSpaceOnUse">
<stop stop-color="#2AD1D1"/>
<stop offset="1" stop-color="#009EE1"/>
</linearGradient>
<linearGradient id="paint5_linear" x1="170.756" y1="155.382" x2="182.402" y2="156.164" gradientUnits="userSpaceOnUse">
<stop stop-color="#2AD1D1"/>
<stop offset="1" stop-color="#009EE1"/>
</linearGradient>
<linearGradient id="paint6_linear" x1="99.8538" y1="167.45" x2="111.5" y2="168.233" gradientUnits="userSpaceOnUse">
<stop stop-color="#2AD1D1"/>
<stop offset="1" stop-color="#009EE1"/>
</linearGradient>
<linearGradient id="paint7_linear" x1="42.5286" y1="179.519" x2="54.1746" y2="180.301" gradientUnits="userSpaceOnUse">
<stop stop-color="#2AD1D1"/>
<stop offset="1" stop-color="#009EE1"/>
</linearGradient>
<linearGradient id="paint8_linear" x1="68.1741" y1="131.245" x2="79.8201" y2="132.027" gradientUnits="userSpaceOnUse">
<stop stop-color="#2AD1D1"/>
<stop offset="1" stop-color="#009EE1"/>
</linearGradient>
<linearGradient id="paint9_linear" x1="-1.21969" y1="155.382" x2="10.4263" y2="156.164" gradientUnits="userSpaceOnUse">
<stop stop-color="#2AD1D1"/>
<stop offset="1" stop-color="#009EE1"/>
</linearGradient>
<linearGradient id="paint10_linear" x1="84.7684" y1="104.09" x2="96.4143" y2="104.873" gradientUnits="userSpaceOnUse">
<stop stop-color="#2AD1D1"/>
<stop offset="1" stop-color="#009EE1"/>
</linearGradient>
<linearGradient id="paint11_linear" x1="108.905" y1="141.805" x2="120.551" y2="142.588" gradientUnits="userSpaceOnUse">
<stop stop-color="#2AD1D1"/>
<stop offset="1" stop-color="#009EE1"/>
</linearGradient>
<linearGradient id="paint12_linear" x1="122.482" y1="110.125" x2="134.128" y2="110.907" gradientUnits="userSpaceOnUse">
<stop stop-color="#2AD1D1"/>
<stop offset="1" stop-color="#009EE1"/>
</linearGradient>
<linearGradient id="paint13_linear" x1="137.568" y1="134.262" x2="149.214" y2="135.045" gradientUnits="userSpaceOnUse">
<stop stop-color="#2AD1D1"/>
<stop offset="1" stop-color="#009EE1"/>
</linearGradient>
<linearGradient id="paint14_linear" x1="104.989" y1="15.8396" x2="110.812" y2="16.231" gradientUnits="userSpaceOnUse">
<stop stop-color="#2AD1D1"/>
<stop offset="1" stop-color="#009EE1"/>
</linearGradient>
<linearGradient id="paint15_linear" x1="150.246" y1="41.4853" x2="156.069" y2="41.8766" gradientUnits="userSpaceOnUse">
<stop stop-color="#2AD1D1"/>
<stop offset="1" stop-color="#009EE1"/>
</linearGradient>
<linearGradient id="paint16_linear" x1="174.383" y1="67.1309" x2="180.206" y2="67.5222" gradientUnits="userSpaceOnUse">
<stop stop-color="#2AD1D1"/>
<stop offset="1" stop-color="#009EE1"/>
</linearGradient>
<linearGradient id="paint17_linear" x1="163.823" y1="106.353" x2="169.646" y2="106.745" gradientUnits="userSpaceOnUse">
<stop stop-color="#2AD1D1"/>
<stop offset="1" stop-color="#009EE1"/>
</linearGradient>
<linearGradient id="paint18_linear" x1="151.755" y1="135.016" x2="157.578" y2="135.408" gradientUnits="userSpaceOnUse">
<stop stop-color="#2AD1D1"/>
<stop offset="1" stop-color="#009EE1"/>
</linearGradient>
<linearGradient id="paint19_linear" x1="138.178" y1="106.353" x2="144.001" y2="106.745" gradientUnits="userSpaceOnUse">
<stop stop-color="#2AD1D1"/>
<stop offset="1" stop-color="#009EE1"/>
</linearGradient>
<linearGradient id="paint20_linear" x1="174.383" y1="113.896" x2="180.206" y2="114.288" gradientUnits="userSpaceOnUse">
<stop stop-color="#2AD1D1"/>
<stop offset="1" stop-color="#009EE1"/>
</linearGradient>
<linearGradient id="paint21_linear" x1="174.383" y1="92.7766" x2="180.206" y2="93.168" gradientUnits="userSpaceOnUse">
<stop stop-color="#2AD1D1"/>
<stop offset="1" stop-color="#009EE1"/>
</linearGradient>
<linearGradient id="paint22_linear" x1="108.006" y1="94.2852" x2="113.829" y2="94.6765" gradientUnits="userSpaceOnUse">
<stop stop-color="#2AD1D1"/>
<stop offset="1" stop-color="#009EE1"/>
</linearGradient>
<linearGradient id="paint23_linear" x1="65.7667" y1="92.7766" x2="71.5897" y2="93.168" gradientUnits="userSpaceOnUse">
<stop stop-color="#2AD1D1"/>
<stop offset="1" stop-color="#009EE1"/>
</linearGradient>
<linearGradient id="paint24_linear" x1="11.2554" y1="123.702" x2="19.0194" y2="124.223" gradientUnits="userSpaceOnUse">
<stop stop-color="#2AD1D1"/>
<stop offset="1" stop-color="#009EE1"/>
</linearGradient>
<linearGradient id="paint25_linear" x1="2.40737" y1="83.7249" x2="8.23036" y2="84.1162" gradientUnits="userSpaceOnUse">
<stop stop-color="#2AD1D1"/>
<stop offset="1" stop-color="#009EE1"/>
</linearGradient>
<linearGradient id="paint26_linear" x1="35.5956" y1="47.5197" x2="41.4186" y2="47.911" gradientUnits="userSpaceOnUse">
<stop stop-color="#2AD1D1"/>
<stop offset="1" stop-color="#009EE1"/>
</linearGradient>
<linearGradient id="paint27_linear" x1="53.6981" y1="44.5025" x2="59.5211" y2="44.8938" gradientUnits="userSpaceOnUse">
<stop stop-color="#2AD1D1"/>
<stop offset="1" stop-color="#009EE1"/>
</linearGradient>
<linearGradient id="paint28_linear" x1="80.8526" y1="39.9767" x2="86.6756" y2="40.368" gradientUnits="userSpaceOnUse">
<stop stop-color="#2AD1D1"/>
<stop offset="1" stop-color="#009EE1"/>
</linearGradient>
<linearGradient id="paint29_linear" x1="25.0357" y1="168.204" x2="30.8587" y2="168.596" gradientUnits="userSpaceOnUse">
<stop stop-color="#2AD1D1"/>
<stop offset="1" stop-color="#009EE1"/>
</linearGradient>
<linearGradient id="paint30_linear" x1="38.6127" y1="141.05" x2="44.4357" y2="141.441" gradientUnits="userSpaceOnUse">
<stop stop-color="#2AD1D1"/>
<stop offset="1" stop-color="#009EE1"/>
</linearGradient>
<linearGradient id="paint31_linear" x1="83.8694" y1="172.73" x2="89.6924" y2="173.121" gradientUnits="userSpaceOnUse">
<stop stop-color="#2AD1D1"/>
<stop offset="1" stop-color="#009EE1"/>
</linearGradient>
<linearGradient id="paint32_linear" x1="83.8694" y1="172.73" x2="89.6924" y2="173.121" gradientUnits="userSpaceOnUse">
<stop stop-color="#2AD1D1"/>
<stop offset="1" stop-color="#009EE1"/>
</linearGradient>
<linearGradient id="paint33_linear" x1="120.075" y1="186.307" x2="125.898" y2="186.698" gradientUnits="userSpaceOnUse">
<stop stop-color="#2AD1D1"/>
<stop offset="1" stop-color="#009EE1"/>
</linearGradient>
<linearGradient id="paint34_linear" x1="88.395" y1="204.409" x2="94.218" y2="204.801" gradientUnits="userSpaceOnUse">
<stop stop-color="#2AD1D1"/>
<stop offset="1" stop-color="#009EE1"/>
</linearGradient>
<linearGradient id="paint35_linear" x1="68.784" y1="192.341" x2="74.607" y2="192.733" gradientUnits="userSpaceOnUse">
<stop stop-color="#2AD1D1"/>
<stop offset="1" stop-color="#009EE1"/>
</linearGradient>
<linearGradient id="paint36_linear" x1="132.347" y1="89.0051" x2="136.229" y2="89.266" gradientUnits="userSpaceOnUse">
<stop stop-color="#2AD1D1"/>
<stop offset="1" stop-color="#009EE1"/>
</linearGradient>
<linearGradient id="paint37_linear" x1="75.0213" y1="63.3594" x2="78.9033" y2="63.6203" gradientUnits="userSpaceOnUse">
<stop stop-color="#2AD1D1"/>
<stop offset="1" stop-color="#009EE1"/>
</linearGradient>
<linearGradient id="paint38_linear" x1="138.178" y1="41.4853" x2="144.001" y2="41.8766" gradientUnits="userSpaceOnUse">
<stop stop-color="#2AD1D1"/>
<stop offset="1" stop-color="#009EE1"/>
</linearGradient>
<linearGradient id="paint39_linear" x1="23.3237" y1="81.4619" x2="31.0877" y2="81.9837" gradientUnits="userSpaceOnUse">
<stop stop-color="#2AD1D1"/>
<stop offset="1" stop-color="#009EE1"/>
</linearGradient>
<linearGradient id="paint40_linear" x1="142.907" y1="173.484" x2="146.789" y2="173.745" gradientUnits="userSpaceOnUse">
<stop stop-color="#2AD1D1"/>
<stop offset="1" stop-color="#009EE1"/>
</linearGradient>
<linearGradient id="paint41_linear" x1="82.5643" y1="144.822" x2="86.4463" y2="145.082" gradientUnits="userSpaceOnUse">
<stop stop-color="#2AD1D1"/>
<stop offset="1" stop-color="#009EE1"/>
</linearGradient>
<linearGradient id="paint42_linear" x1="49.3758" y1="128.228" x2="53.2578" y2="128.488" gradientUnits="userSpaceOnUse">
<stop stop-color="#2AD1D1"/>
<stop offset="1" stop-color="#009EE1"/>
</linearGradient>
<linearGradient id="paint43_linear" x1="127.821" y1="152.365" x2="131.703" y2="152.625" gradientUnits="userSpaceOnUse">
<stop stop-color="#2AD1D1"/>
<stop offset="1" stop-color="#009EE1"/>
</linearGradient>
<linearGradient id="paint44_linear" x1="56.7154" y1="23.3827" x2="62.5383" y2="23.7741" gradientUnits="userSpaceOnUse">
<stop stop-color="#2AD1D1"/>
<stop offset="1" stop-color="#009EE1"/>
</linearGradient>
<linearGradient id="paint45_linear" x1="40.1211" y1="32.4343" x2="45.9441" y2="32.8257" gradientUnits="userSpaceOnUse">
<stop stop-color="#2AD1D1"/>
<stop offset="1" stop-color="#009EE1"/>
</linearGradient>
</defs>
</svg>
