<svg width="20" height="20" viewBox="0 0 20 20" fill="none" xmlns="http://www.w3.org/2000/svg">
<path d="M20 10C19.9939 15.5203 15.5203 19.9939 9.99999 20H9.79999C4.30452 19.8901 -0.0720524 15.3654 0.000867605 9.8693C0.0737976 4.3732 4.56888 -0.0337009 10.0653 0.00219917C15.5618 0.0380993 19.9989 4.5034 20 10ZM1.99999 10C1.99999 14.4183 5.58171 18 9.99999 18C14.4183 18 18 14.4183 18 10C18 5.5817 14.4183 2 9.99999 2C5.58377 2.005 2.00495 5.5838 1.99999 10ZM15 10L13.59 11.41L11 8.83V15H8.99999V8.83L6.40999 11.41L4.99999 10L9.99999 5L15 10Z" fill="#949494"/>
</svg>
