<svg width="20" height="20" viewBox="0 0 20 20" fill="none" xmlns="http://www.w3.org/2000/svg">
<path d="M10 -1.71661e-05C15.5203 0.00608253 19.9939 4.47968 20 9.99998V10.2C19.8901 15.6955 15.3654 20.072 9.8693 19.9991C4.3732 19.9262 -0.0337009 15.4311 0.00219917 9.93468C0.0380993 4.43818 4.5034 0.00108337 10 -1.71661e-05ZM10 18C14.4183 18 18 14.4183 18 9.99998C18 5.58168 14.4183 1.99998 10 1.99998C5.5817 1.99998 2 5.58168 2 9.99998C2.005 14.4162 5.5838 17.995 10 18ZM10 4.99998L11.41 6.40998L8.83 8.99998L15 8.99998L15 11L8.83 11L11.41 13.59L10 15L5 9.99998L10 4.99998Z" fill="#949494"/>
</svg>
