<svg width="20" height="20" viewBox="0 0 20 20" fill="none" xmlns="http://www.w3.org/2000/svg">
<path d="M-1.71661e-05 10C0.00608253 4.47967 4.47968 0.00606 9.99998 0L10.2 0C15.6955 0.10993 20.072 4.63459 19.9991 10.1307C19.9262 15.6268 15.4311 20.0337 9.93468 19.9978C4.43818 19.9619 0.00108337 15.4966 -1.71661e-05 10ZM18 10C18 5.58172 14.4183 2 9.99998 2C5.58168 2 1.99998 5.58172 1.99998 10C1.99998 14.4183 5.58168 18 9.99998 18C14.4162 17.995 17.995 14.4162 18 10ZM4.99998 10L6.40998 8.59L8.99998 11.17V5H11V11.17L13.59 8.59L15 10L9.99998 15L4.99998 10Z" fill="white"/>
</svg>
