<svg width="20" height="20" viewBox="0 0 20 20" fill="none" xmlns="http://www.w3.org/2000/svg">
<path d="M9.99998 19.1668C4.93737 19.1668 0.833313 15.0627 0.833313 10.0002C0.833313 4.93755 4.93737 0.833496 9.99998 0.833496C15.0625 0.833496 19.1666 4.93755 19.1666 10.0002C19.1611 15.0604 15.0603 19.1612 9.99998 19.1668ZM9.99998 2.66683C5.94989 2.66683 2.66665 5.95007 2.66665 10.0002C2.66665 14.0503 5.94989 17.3335 9.99998 17.3335C14.0501 17.3335 17.3333 14.0503 17.3333 10.0002C17.3287 5.95196 14.0482 2.67138 9.99998 2.66683ZM14.5833 10.9168H9.08331V5.41683H10.9166V9.0835H14.5833V10.9168Z" fill="#949494"/>
</svg>
