<svg width="22" height="23" viewBox="0 0 22 23" fill="none" xmlns="http://www.w3.org/2000/svg">
<path d="M13.585 4.405C13.403 4.73105 13.2407 5.06777 13.0992 5.41333C11.7084 5.19338 10.2916 5.19338 8.90085 5.41333C8.75931 5.06777 8.59707 4.73105 8.41502 4.405C7.10491 4.62885 5.8313 5.02974 4.62918 5.59667C2.47954 8.69893 1.50467 12.4652 1.87918 16.2208C3.28007 17.274 4.85235 18.0772 6.52668 18.595C6.90794 18.0914 7.24819 17.558 7.54418 17C6.99792 16.7986 6.47287 16.5437 5.97668 16.2392C6.11277 16.1486 6.2415 16.0475 6.36168 15.9367C7.8086 16.6336 9.39399 16.9955 11 16.9955C12.606 16.9955 14.1914 16.6336 15.6383 15.9367C15.7667 16.0467 15.895 16.1475 16.0233 16.2392C15.5245 16.5413 14.9999 16.799 14.4558 17.0092C14.7396 17.5798 15.0707 18.1256 15.4458 18.6408C17.1181 18.1248 18.6877 17.3214 20.0842 16.2667C20.4677 12.5104 19.492 8.741 17.3342 5.6425C16.1456 5.06384 14.8845 4.64761 13.585 4.405ZM7.95668 14.0758C7.49797 14.0429 7.06985 13.8335 6.76219 13.4917C6.45454 13.1499 6.29128 12.7021 6.30668 12.2425C6.28895 11.7823 6.45141 11.3332 6.75953 10.9909C7.06764 10.6485 7.49712 10.4398 7.95668 10.4092C8.41624 10.4398 8.84572 10.6485 9.15384 10.9909C9.46195 11.3332 9.62441 11.7823 9.60668 12.2425C9.62441 12.7027 9.46195 13.1518 9.15384 13.4941C8.84572 13.8365 8.41624 14.0451 7.95668 14.0758ZM14.0433 14.0758C13.5846 14.0429 13.1565 13.8335 12.8489 13.4917C12.5412 13.1499 12.3779 12.7021 12.3933 12.2425C12.3756 11.7823 12.5381 11.3332 12.8462 10.9909C13.1543 10.6485 13.5838 10.4398 14.0433 10.4092C14.5038 10.4376 14.9346 10.6456 15.2432 10.9884C15.5518 11.3313 15.7134 11.7816 15.6933 12.2425C15.7134 12.7034 15.5518 13.1537 15.2432 13.4965C14.9346 13.8394 14.5038 14.0474 14.0433 14.0758Z" fill="white"/>
</svg>
