<svg width="22" height="22" viewBox="0 0 22 22" fill="none" xmlns="http://www.w3.org/2000/svg">
<path d="M13.585 3.90479C13.403 4.23083 13.2407 4.56755 13.0992 4.91312C11.7084 4.69316 10.2916 4.69316 8.90085 4.91312C8.75931 4.56755 8.59707 4.23083 8.41502 3.90479C7.10491 4.12864 5.8313 4.52953 4.62918 5.09645C2.47954 8.19872 1.50467 11.965 1.87918 15.7206C3.28007 16.7737 4.85235 17.5769 6.52668 18.0948C6.90794 17.5912 7.24819 17.0578 7.54418 16.4998C6.99792 16.2984 6.47287 16.0435 5.97668 15.739C6.11277 15.6484 6.2415 15.5473 6.36168 15.4365C7.8086 16.1334 9.39399 16.4953 11 16.4953C12.606 16.4953 14.1914 16.1334 15.6383 15.4365C15.7667 15.5465 15.895 15.6473 16.0233 15.739C15.5245 16.0411 14.9999 16.2988 14.4558 16.509C14.7396 17.0796 15.0707 17.6254 15.4458 18.1406C17.1181 17.6246 18.6877 16.8212 20.0842 15.7665C20.4677 12.0101 19.492 8.24079 17.3342 5.14228C16.1456 4.56363 14.8845 4.1474 13.585 3.90479ZM7.95668 13.5756C7.49797 13.5427 7.06985 13.3333 6.76219 12.9915C6.45454 12.6497 6.29128 12.2019 6.30668 11.7423C6.28895 11.282 6.45141 10.833 6.75953 10.4907C7.06764 10.1483 7.49712 9.93963 7.95668 9.90895C8.41624 9.93963 8.84572 10.1483 9.15384 10.4907C9.46195 10.833 9.62441 11.282 9.60668 11.7423C9.62441 12.2025 9.46195 12.6515 9.15384 12.9939C8.84572 13.3362 8.41624 13.5449 7.95668 13.5756ZM14.0433 13.5756C13.5846 13.5427 13.1565 13.3333 12.8489 12.9915C12.5412 12.6497 12.3779 12.2019 12.3933 11.7423C12.3756 11.282 12.5381 10.833 12.8462 10.4907C13.1543 10.1483 13.5838 9.93963 14.0433 9.90895C14.5038 9.93734 14.9346 10.1454 15.2432 10.4882C15.5518 10.8311 15.7134 11.2814 15.6933 11.7423C15.7134 12.2031 15.5518 12.6535 15.2432 12.9963C14.9346 13.3392 14.5038 13.5472 14.0433 13.5756Z" fill="url(#paint0_linear)"/>
<defs>
<linearGradient id="paint0_linear" x1="1.80075" y1="-0.437145" x2="21.5293" y2="20.8639" gradientUnits="userSpaceOnUse">
<stop stop-color="#00D3D3"/>
<stop offset="1" stop-color="#005C83"/>
</linearGradient>
</defs>
</svg>
