<svg width="62" height="71" viewBox="0 0 62 71" fill="none" xmlns="http://www.w3.org/2000/svg">
<path d="M30.5 0.612549L41.525 63.8751M30.5 0.612549L45.4625 9.53755M30.5 0.612549L13.9625 10.332M41.525 63.8751L60.425 53.3751M41.525 63.8751L41.2064 64.0662M45.4625 9.53755L0.574993 53.3751M45.4625 9.53755L52.025 13.2081M45.4625 9.53755L15.8 61.7751M45.4625 9.53755L0.574993 18.2001M45.4625 9.53755L60.7541 31.3251M0.574993 53.3751V18.2001M0.574993 53.3751L0.837493 53.2221M0.574993 53.3751L60.95 18.2001M0.574993 53.3751L13.9625 10.332M0.574993 18.2001L60.425 53.3751M0.574993 18.2001L13.9625 10.332M0.574993 18.2001L41.2064 64.0662M60.95 18.2001L52.025 13.2081M60.95 18.2001L60.7541 31.3251M60.95 18.2001L13.9625 10.332M60.425 53.3751L15.8 61.7751M60.425 53.3751L60.7541 31.3251M60.425 53.3751L13.9625 10.332M60.425 53.3751L52.025 13.2081M60.425 53.3751L23.4125 65.9751M31.025 70.1751L52.025 13.2081M31.025 70.1751L41.2064 64.0662M31.025 70.1751L60.7541 31.3251M31.025 70.1751L23.4125 65.9751M15.8 61.7751L0.837493 53.2221M15.8 61.7751L23.4125 65.9751M0.837493 53.2221L60.7541 31.3251" stroke="url(#paint0_linear)" stroke-width="0.5"/>
<defs>
<linearGradient id="paint0_linear" x1="-7.56065" y1="35.3938" x2="70.2076" y2="39.93" gradientUnits="userSpaceOnUse">
<stop stop-color="#2AD1D1"/>
<stop offset="1" stop-color="#009EE1"/>
</linearGradient>
</defs>
</svg>
