<svg width="24" height="24" viewBox="0 0 24 24" fill="none" xmlns="http://www.w3.org/2000/svg">
<path d="M9 9.1H9.1V9V5V4.9H9H5H4.9V5V9V9.1H5H9ZM15 4.9H14.9V5V9V9.1H15H19H19.1V9V5V4.9H19H15ZM5 14.9H4.9V15V19V19.1H5H9H9.1V19V15V14.9H9H5ZM15 14.9H14.9V15V19V19.1H15H19H19.1V19V15V14.9H19H15ZM4 3.1H10C10.2387 3.1 10.4676 3.19482 10.6364 3.3636C10.8052 3.53239 10.9 3.76131 10.9 4V10C10.9 10.2387 10.8052 10.4676 10.6364 10.6364C10.4676 10.8052 10.2387 10.9 10 10.9H4C3.76131 10.9 3.53239 10.8052 3.3636 10.6364C3.19482 10.4676 3.1 10.2387 3.1 10V4C3.1 3.76131 3.19482 3.53239 3.3636 3.3636C3.53239 3.19482 3.76131 3.1 4 3.1ZM20 10.9H14C13.7613 10.9 13.5324 10.8052 13.3636 10.6364C13.1948 10.4676 13.1 10.2387 13.1 10V4C13.1 3.76131 13.1948 3.53239 13.3636 3.3636C13.5324 3.19482 13.7613 3.1 14 3.1H20C20.2387 3.1 20.4676 3.19482 20.6364 3.3636C20.8052 3.53239 20.9 3.76131 20.9 4V10C20.9 10.2387 20.8052 10.4676 20.6364 10.6364C20.4676 10.8052 20.2387 10.9 20 10.9ZM3.3636 20.6364C3.19482 20.4676 3.1 20.2387 3.1 20V14C3.1 13.7613 3.19482 13.5324 3.3636 13.3636C3.53239 13.1948 3.76131 13.1 4 13.1H10C10.2387 13.1 10.4676 13.1948 10.6364 13.3636C10.8052 13.5324 10.9 13.7613 10.9 14V20C10.9 20.2387 10.8052 20.4676 10.6364 20.6364C10.4676 20.8052 10.2387 20.9 10 20.9H4C3.76131 20.9 3.53239 20.8052 3.3636 20.6364ZM13.3636 20.6364C13.1948 20.4676 13.1 20.2387 13.1 20V14C13.1 13.7613 13.1948 13.5324 13.3636 13.3636C13.5324 13.1948 13.7613 13.1 14 13.1H20C20.2387 13.1 20.4676 13.1948 20.6364 13.3636C20.8052 13.5324 20.9 13.7613 20.9 14V20C20.9 20.2387 20.8052 20.4676 20.6364 20.6364C20.4676 20.8052 20.2387 20.9 20 20.9H14C13.7613 20.9 13.5324 20.8052 13.3636 20.6364Z" fill="white" stroke="#060C0E" stroke-width="0.2"/>
</svg>
