<svg width="22" height="23" viewBox="0 0 22 23" fill="none" xmlns="http://www.w3.org/2000/svg">
<path d="M4.56774 7.09724C5.67544 7.09724 6.57341 6.19927 6.57341 5.09157C6.57341 3.98387 5.67544 3.08591 4.56774 3.08591C3.46004 3.08591 2.56207 3.98387 2.56207 5.09157C2.56207 6.19927 3.46004 7.09724 4.56774 7.09724Z" fill="white"/>
<path d="M8.46726 8.61707V19.7445H11.9222V14.2417C11.9222 12.7897 12.1953 11.3836 13.9957 11.3836C15.7713 11.3836 15.7933 13.0437 15.7933 14.3334V19.7454H19.25V13.6432C19.25 10.6457 18.6047 8.34207 15.1012 8.34207C13.4191 8.34207 12.2916 9.26515 11.8305 10.1387H11.7838V8.61707H8.46726ZM2.8371 8.61707H6.29751V19.7445H2.8371V8.61707Z" fill="white"/>
</svg>
