<svg width="98" height="143" viewBox="0 0 98 143" fill="none" xmlns="http://www.w3.org/2000/svg">
<path d="M61.5135 1.17578L83.7433 128.732M61.5135 1.17578L91.6824 19.1713M61.5135 1.17578L28.1689 20.7731M83.7433 128.732L121.851 107.561M83.7433 128.732L83.1008 129.118M91.6824 19.1713L1.17566 107.561M91.6824 19.1713L104.914 26.5722M91.6824 19.1713L31.8739 124.498M91.6824 19.1713L1.17566 36.6375M91.6824 19.1713L122.515 63.1015M1.17566 107.561V36.6375M1.17566 107.561L1.70494 107.253M1.17566 107.561L122.91 36.6375M1.17566 107.561L28.1689 20.7731M1.17566 36.6375L121.851 107.561M1.17566 36.6375L28.1689 20.7731M1.17566 36.6375L83.1008 129.118M122.91 36.6375L104.914 26.5722M122.91 36.6375L122.515 63.1015M122.91 36.6375L28.1689 20.7731M121.851 107.561L31.8739 124.498M121.851 107.561L122.515 63.1015M121.851 107.561L28.1689 20.7731M121.851 107.561L104.914 26.5722M121.851 107.561L47.223 132.966M62.5721 141.435L104.914 26.5722M62.5721 141.435L83.1008 129.118M62.5721 141.435L122.515 63.1015M62.5721 141.435L47.223 132.966M31.8739 124.498L1.70494 107.253M31.8739 124.498L47.223 132.966M1.70494 107.253L122.515 63.1015" stroke="url(#paint0_linear)"/>
<defs>
<linearGradient id="paint0_linear" x1="-15.2283" y1="71.3053" x2="141.576" y2="80.4517" gradientUnits="userSpaceOnUse">
<stop stop-color="#2AD1D1"/>
<stop offset="1" stop-color="#009EE1"/>
</linearGradient>
</defs>
</svg>
