<svg width="20" height="20" viewBox="0 0 20 20" fill="none" xmlns="http://www.w3.org/2000/svg">
<path d="M10.0002 19.1666C4.93755 19.1666 0.833496 15.0625 0.833496 9.99998C0.833496 4.93737 4.93755 0.833313 10.0002 0.833313C15.0627 0.833313 19.1668 4.93737 19.1668 9.99998C19.1612 15.0603 15.0604 19.1611 10.0002 19.1666ZM2.66683 10.1576C2.71021 14.1921 6.00451 17.4337 10.0391 17.4121C14.0738 17.3903 17.333 14.1135 17.333 10.0788C17.333 6.04411 14.0738 2.76727 10.0391 2.74548C6.00451 2.7239 2.71021 5.96551 2.66683 9.99998V10.1576ZM8.16683 14.125V5.87498L13.6668 9.99998L8.16683 14.125Z" fill="white"/>
</svg>
