<svg width="22" height="22" viewBox="0 0 22 22" fill="none" xmlns="http://www.w3.org/2000/svg">
<path d="M5.67783 13.4239C5.67783 14.4872 4.81341 15.3553 3.75008 15.3553C3.23853 15.3538 2.7484 15.1498 2.38694 14.7878C2.02548 14.4258 1.82214 13.9354 1.82141 13.4239C1.82238 12.9125 2.02583 12.4223 2.38726 12.0605C2.7487 11.6987 3.23869 11.4948 3.75008 11.4934H5.67783V13.4239ZM6.65041 13.4239C6.65041 12.3605 7.51574 11.4934 8.57908 11.4934C9.0903 11.4951 9.58007 11.6991 9.9413 12.0608C10.3025 12.4226 10.5059 12.9126 10.5068 13.4239V18.2584C10.5059 18.7696 10.3025 19.2596 9.9413 19.6214C9.58007 19.9831 9.0903 20.1872 8.57908 20.1889C8.06754 20.1879 7.57727 19.9841 7.21573 19.6222C6.85419 19.2604 6.6509 18.7699 6.65041 18.2584V13.4239ZM8.57908 5.67344C7.51574 5.67344 6.65041 4.80444 6.65041 3.74202C6.65041 2.67961 7.51574 1.81152 8.57908 1.81152C9.0903 1.81322 9.58007 2.01724 9.9413 2.37899C10.3025 2.74074 10.5059 3.2308 10.5068 3.74202V5.67344H8.57908ZM8.57908 6.64511C9.09046 6.6468 9.58036 6.85095 9.94162 7.2129C10.3029 7.57485 10.5061 8.06514 10.5068 8.57652C10.5059 9.08775 10.3025 9.5778 9.9413 9.93955C9.58007 10.3013 9.0903 10.5053 8.57908 10.507H3.75099C3.23961 10.5056 2.74961 10.3017 2.38818 9.93988C2.02675 9.5781 1.8233 9.08791 1.82233 8.57652C1.82305 8.06498 2.0264 7.57455 2.38786 7.21258C2.74932 6.8506 3.23945 6.64656 3.75099 6.64511H8.57908ZM16.3222 8.57652C16.3222 7.51319 17.1866 6.64511 18.2499 6.64511C18.7615 6.64656 19.2516 6.8506 19.613 7.21258C19.9745 7.57455 20.1779 8.06498 20.1786 8.57652C20.1776 9.08791 19.9742 9.5781 19.6127 9.93988C19.2513 10.3017 18.7613 10.5056 18.2499 10.507H16.3222V8.57652ZM15.3496 8.57652C15.3496 9.63986 14.4842 10.507 13.4209 10.507C12.9097 10.5053 12.4199 10.3013 12.0587 9.93955C11.6975 9.5778 11.4941 9.08775 11.4932 8.57652V3.74202C11.4941 3.2308 11.6975 2.74074 12.0587 2.37899C12.4199 2.01724 12.9097 1.81322 13.4209 1.81152C14.4842 1.81152 15.3496 2.67869 15.3496 3.74202V8.57652ZM13.4209 16.3269C14.4842 16.3269 15.3496 17.1959 15.3496 18.2584C15.3496 19.3208 14.4842 20.1889 13.4209 20.1889C12.9097 20.1872 12.4199 19.9831 12.0587 19.6214C11.6975 19.2596 11.4941 18.7696 11.4932 18.2584V16.3269H13.4209ZM13.4209 15.3553C12.9095 15.3536 12.4196 15.1494 12.0584 14.7875C11.6971 14.4255 11.4939 13.9352 11.4932 13.4239C11.4941 12.9126 11.6975 12.4226 12.0587 12.0608C12.4199 11.6991 12.9097 11.4951 13.4209 11.4934H18.2499C18.7613 11.4948 19.2513 11.6987 19.6127 12.0605C19.9742 12.4223 20.1776 12.9125 20.1786 13.4239C20.1779 13.9354 19.9745 14.4258 19.613 14.7878C19.2516 15.1498 18.7615 15.3538 18.2499 15.3553H13.4209Z" fill="url(#paint0_linear)"/>
<defs>
<linearGradient id="paint0_linear" x1="1.82141" y1="-3.79356" x2="26.96" y2="17.2229" gradientUnits="userSpaceOnUse">
<stop stop-color="#00D3D3"/>
<stop offset="1" stop-color="#005C83"/>
</linearGradient>
</defs>
</svg>
