<svg width="22" height="23" viewBox="0 0 22 23" fill="none" xmlns="http://www.w3.org/2000/svg">
<path d="M5.67783 13.9237C5.67783 14.987 4.81341 15.8551 3.75008 15.8551C3.23853 15.8536 2.7484 15.6496 2.38694 15.2876C2.02548 14.9256 1.82214 14.4352 1.82141 13.9237C1.82238 13.4123 2.02583 12.9221 2.38726 12.5603C2.7487 12.1985 3.23869 11.9946 3.75008 11.9932H5.67783V13.9237ZM6.65041 13.9237C6.65041 12.8603 7.51574 11.9932 8.57908 11.9932C9.0903 11.9949 9.58007 12.1989 9.9413 12.5606C10.3025 12.9224 10.5059 13.4124 10.5068 13.9237V18.7582C10.5059 19.2694 10.3025 19.7595 9.9413 20.1212C9.58007 20.483 9.0903 20.687 8.57908 20.6887C8.06754 20.6877 7.57727 20.4839 7.21573 20.1221C6.85419 19.7602 6.6509 19.2697 6.65041 18.7582V13.9237ZM8.57908 6.17326C7.51574 6.17326 6.65041 5.30426 6.65041 4.24184C6.65041 3.17942 7.51574 2.31134 8.57908 2.31134C9.0903 2.31304 9.58007 2.51706 9.9413 2.87881C10.3025 3.24056 10.5059 3.73061 10.5068 4.24184V6.17326H8.57908ZM8.57908 7.14492C9.09046 7.14662 9.58036 7.35077 9.94162 7.71272C10.3029 8.07467 10.5061 8.56495 10.5068 9.07634C10.5059 9.58757 10.3025 10.0776 9.9413 10.4394C9.58007 10.8011 9.0903 11.0051 8.57908 11.0068H3.75099C3.23961 11.0054 2.74961 10.8015 2.38818 10.4397C2.02675 10.0779 1.8233 9.58773 1.82233 9.07634C1.82305 8.5648 2.0264 8.07437 2.38786 7.71239C2.74932 7.35042 3.23945 7.14638 3.75099 7.14492H8.57908ZM16.3222 9.07634C16.3222 8.01301 17.1866 7.14492 18.2499 7.14492C18.7615 7.14638 19.2516 7.35042 19.613 7.71239C19.9745 8.07437 20.1779 8.5648 20.1786 9.07634C20.1776 9.58773 19.9742 10.0779 19.6127 10.4397C19.2513 10.8015 18.7613 11.0054 18.2499 11.0068H16.3222V9.07634ZM15.3496 9.07634C15.3496 10.1397 14.4842 11.0068 13.4209 11.0068C12.9097 11.0051 12.4199 10.8011 12.0587 10.4394C11.6975 10.0776 11.4941 9.58757 11.4932 9.07634V4.24184C11.4941 3.73061 11.6975 3.24056 12.0587 2.87881C12.4199 2.51706 12.9097 2.31304 13.4209 2.31134C14.4842 2.31134 15.3496 3.17851 15.3496 4.24184V9.07634ZM13.4209 16.8268C14.4842 16.8268 15.3496 17.6958 15.3496 18.7582C15.3496 19.8206 14.4842 20.6887 13.4209 20.6887C12.9097 20.687 12.4199 20.483 12.0587 20.1212C11.6975 19.7595 11.4941 19.2694 11.4932 18.7582V16.8268H13.4209ZM13.4209 15.8551C12.9095 15.8534 12.4196 15.6492 12.0584 15.2873C11.6971 14.9253 11.4939 14.4351 11.4932 13.9237C11.4941 13.4124 11.6975 12.9224 12.0587 12.5606C12.4199 12.1989 12.9097 11.9949 13.4209 11.9932H18.2499C18.7613 11.9946 19.2513 12.1985 19.6127 12.5603C19.9742 12.9221 20.1776 13.4123 20.1786 13.9237C20.1779 14.4352 19.9745 14.9256 19.613 15.2876C19.2516 15.6496 18.7615 15.8536 18.2499 15.8551H13.4209Z" fill="white"/>
</svg>
