<svg width="22" height="23" viewBox="0 0 22 23" fill="none" xmlns="http://www.w3.org/2000/svg">
<path d="M17.9969 7.83058C18.0088 7.991 18.0088 8.1505 18.0088 8.31C18.0088 13.1912 14.2936 18.8159 7.50384 18.8159C5.41201 18.8159 3.46868 18.21 1.83334 17.1577C2.13034 17.1916 2.41634 17.2035 2.72526 17.2035C4.38717 17.2075 6.00202 16.6518 7.30951 15.6259C6.53898 15.612 5.79204 15.3578 5.17298 14.8988C4.55392 14.4398 4.09365 13.7989 3.85643 13.0657C4.08468 13.0996 4.31384 13.1225 4.55401 13.1225C4.88493 13.1225 5.21768 13.0767 5.52659 12.9969C4.69037 12.8281 3.93844 12.3748 3.39866 11.7142C2.85888 11.0536 2.56456 10.2264 2.56576 9.37333V9.3275C3.05801 9.60158 3.62909 9.773 4.23409 9.79592C3.72726 9.45912 3.31167 9.0021 3.0244 8.46564C2.73714 7.92918 2.58713 7.32995 2.58776 6.72142C2.58776 6.03575 2.77018 5.40692 3.09009 4.85875C4.01789 6.00002 5.17505 6.93368 6.48665 7.59927C7.79825 8.26486 9.23502 8.64753 10.7039 8.7225C10.6471 8.4475 10.6123 8.16242 10.6123 7.87642C10.612 7.39146 10.7074 6.91122 10.8928 6.46314C11.0783 6.01505 11.3503 5.60792 11.6932 5.265C12.0361 4.92209 12.4432 4.65013 12.8913 4.46465C13.3394 4.27918 13.8196 4.18384 14.3046 4.18408C15.3679 4.18408 16.3277 4.62958 17.0023 5.35008C17.829 5.19023 18.6217 4.88847 19.3453 4.45817C19.0698 5.31141 18.4926 6.03493 17.7219 6.49317C18.4551 6.40955 19.1716 6.21675 19.8477 5.92117C19.3427 6.65734 18.717 7.3029 17.9969 7.83058Z" fill="white"/>
</svg>
