<svg width="22" height="22" viewBox="0 0 22 22" fill="none" xmlns="http://www.w3.org/2000/svg">
<path d="M17.9969 7.33058C18.0088 7.491 18.0088 7.6505 18.0088 7.81C18.0088 12.6912 14.2936 18.3159 7.50384 18.3159C5.41201 18.3159 3.46868 17.71 1.83334 16.6577C2.13034 16.6916 2.41634 16.7035 2.72526 16.7035C4.38717 16.7075 6.00202 16.1518 7.30951 15.1259C6.53898 15.112 5.79204 14.8578 5.17298 14.3988C4.55392 13.9398 4.09365 13.2989 3.85643 12.5657C4.08468 12.5996 4.31384 12.6225 4.55401 12.6225C4.88493 12.6225 5.21768 12.5767 5.52659 12.4969C4.69037 12.3281 3.93844 11.8748 3.39866 11.2142C2.85888 10.5536 2.56456 9.72643 2.56576 8.87333V8.8275C3.05801 9.10158 3.62909 9.273 4.23409 9.29592C3.72726 8.95912 3.31167 8.5021 3.0244 7.96564C2.73714 7.42918 2.58713 6.82995 2.58776 6.22142C2.58776 5.53575 2.77018 4.90692 3.09009 4.35875C4.01789 5.50002 5.17505 6.43368 6.48665 7.09927C7.79825 7.76486 9.23502 8.14753 10.7039 8.2225C10.6471 7.9475 10.6123 7.66242 10.6123 7.37642C10.612 6.89146 10.7074 6.41122 10.8928 5.96314C11.0783 5.51505 11.3503 5.10792 11.6932 4.765C12.0361 4.42209 12.4432 4.15013 12.8913 3.96465C13.3394 3.77918 13.8196 3.68384 14.3046 3.68408C15.3679 3.68408 16.3277 4.12958 17.0023 4.85008C17.829 4.69023 18.6217 4.38847 19.3453 3.95817C19.0698 4.81141 18.4926 5.53493 17.7219 5.99317C18.4551 5.90955 19.1716 5.71675 19.8477 5.42117C19.3427 6.15734 18.717 6.8029 17.9969 7.33058Z" fill="url(#paint0_linear)"/>
<defs>
<linearGradient id="paint0_linear" x1="1.83335" y1="-0.778629" x2="22.1612" y2="20.1676" gradientUnits="userSpaceOnUse">
<stop stop-color="#00D3D3"/>
<stop offset="1" stop-color="#005C83"/>
</linearGradient>
</defs>
</svg>
